<svg xmlns="http://www.w3.org/2000/svg" xmlns:xlink="http://www.w3.org/1999/xlink" width="500" zoomAndPan="magnify" viewBox="0 0 375 374.999991" height="500" preserveAspectRatio="xMidYMid meet" version="1.0"><defs><g/><clipPath id="ed2c81d3d3"><path d="M 98.742188 0.539062 L 314.84375 0.539062 L 314.84375 219.574219 L 98.742188 219.574219 Z M 98.742188 0.539062 " clip-rule="nonzero"/></clipPath><clipPath id="5c2e4efc38"><path d="M 4.292969 25.457031 L 365.277344 25.457031 L 365.277344 178.726562 L 4.292969 178.726562 Z M 4.292969 25.457031 " clip-rule="nonzero"/></clipPath><clipPath id="cd4b5c2305"><path d="M 0.515625 14.128906 L 365 14.128906 L 365 202 L 0.515625 202 Z M 0.515625 14.128906 " clip-rule="nonzero"/></clipPath><clipPath id="10fb541a06"><path d="M 196.917969 186.742188 L 242.347656 186.742188 L 242.347656 232.175781 L 196.917969 232.175781 Z M 196.917969 186.742188 " clip-rule="nonzero"/></clipPath><clipPath id="3efd2543cd"><path d="M 219.632812 186.742188 C 207.089844 186.742188 196.917969 196.914062 196.917969 209.460938 C 196.917969 222.003906 207.089844 232.175781 219.632812 232.175781 C 232.179688 232.175781 242.347656 222.003906 242.347656 209.460938 C 242.347656 196.914062 232.179688 186.742188 219.632812 186.742188 Z M 219.632812 186.742188 " clip-rule="nonzero"/></clipPath><clipPath id="e47adecd66"><path d="M 0.917969 0.742188 L 46.347656 0.742188 L 46.347656 46.175781 L 0.917969 46.175781 Z M 0.917969 0.742188 " clip-rule="nonzero"/></clipPath><clipPath id="7efed8130a"><path d="M 23.632812 0.742188 C 11.089844 0.742188 0.917969 10.914062 0.917969 23.460938 C 0.917969 36.003906 11.089844 46.175781 23.632812 46.175781 C 36.179688 46.175781 46.347656 36.003906 46.347656 23.460938 C 46.347656 10.914062 36.179688 0.742188 23.632812 0.742188 Z M 23.632812 0.742188 " clip-rule="nonzero"/></clipPath><clipPath id="22e8868eb9"><rect x="0" width="47" y="0" height="47"/></clipPath><clipPath id="cda6dc8ee6"><path d="M 286.738281 196.851562 L 332.167969 196.851562 L 332.167969 242.28125 L 286.738281 242.28125 Z M 286.738281 196.851562 " clip-rule="nonzero"/></clipPath><clipPath id="5bf5e13666"><path d="M 309.453125 196.851562 C 296.90625 196.851562 286.738281 207.023438 286.738281 219.566406 C 286.738281 232.113281 296.90625 242.28125 309.453125 242.28125 C 322 242.28125 332.167969 232.113281 332.167969 219.566406 C 332.167969 207.023438 322 196.851562 309.453125 196.851562 Z M 309.453125 196.851562 " clip-rule="nonzero"/></clipPath><clipPath id="77042fb259"><path d="M 0.738281 0.851562 L 46.167969 0.851562 L 46.167969 46.28125 L 0.738281 46.28125 Z M 0.738281 0.851562 " clip-rule="nonzero"/></clipPath><clipPath id="b76886fbe8"><path d="M 23.453125 0.851562 C 10.90625 0.851562 0.738281 11.023438 0.738281 23.566406 C 0.738281 36.113281 10.90625 46.28125 23.453125 46.28125 C 36 46.28125 46.167969 36.113281 46.167969 23.566406 C 46.167969 11.023438 36 0.851562 23.453125 0.851562 Z M 23.453125 0.851562 " clip-rule="nonzero"/></clipPath><clipPath id="0e7ff29021"><rect x="0" width="47" y="0" height="47"/></clipPath><clipPath id="111998804d"><path d="M 56.09375 196.851562 L 101.523438 196.851562 L 101.523438 242.28125 L 56.09375 242.28125 Z M 56.09375 196.851562 " clip-rule="nonzero"/></clipPath><clipPath id="3c65ba53af"><path d="M 78.808594 196.851562 C 66.261719 196.851562 56.09375 207.023438 56.09375 219.566406 C 56.09375 232.113281 66.261719 242.28125 78.808594 242.28125 C 91.355469 242.28125 101.523438 232.113281 101.523438 219.566406 C 101.523438 207.023438 91.355469 196.851562 78.808594 196.851562 Z M 78.808594 196.851562 " clip-rule="nonzero"/></clipPath><clipPath id="6f5e0b8b34"><path d="M 0.09375 0.851562 L 45.523438 0.851562 L 45.523438 46.28125 L 0.09375 46.28125 Z M 0.09375 0.851562 " clip-rule="nonzero"/></clipPath><clipPath id="d2bd0b9114"><path d="M 22.808594 0.851562 C 10.261719 0.851562 0.09375 11.023438 0.09375 23.566406 C 0.09375 36.113281 10.261719 46.28125 22.808594 46.28125 C 35.355469 46.28125 45.523438 36.113281 45.523438 23.566406 C 45.523438 11.023438 35.355469 0.851562 22.808594 0.851562 Z M 22.808594 0.851562 " clip-rule="nonzero"/></clipPath><clipPath id="720703ffa6"><rect x="0" width="46" y="0" height="47"/></clipPath><clipPath id="59ba88f84d"><path d="M 72 225 L 295 225 L 295 259.238281 L 72 259.238281 Z M 72 225 " clip-rule="nonzero"/></clipPath><clipPath id="6a9447d70b"><rect x="0" width="223" y="0" height="35"/></clipPath><clipPath id="cc5e61dc2c"><rect x="0" width="302" y="0" height="71"/></clipPath><clipPath id="7186da8450"><rect x="0" width="366" y="0" height="260"/></clipPath></defs><g transform="matrix(1, 0, 0, 1, 2, 59)"><g clip-path="url(#7186da8450)"><path fill="#67c7f2" d="M 29.226562 101.164062 C 29.226562 98.042969 31.757812 95.511719 34.886719 95.511719 C 38.011719 95.511719 42.742188 98.832031 42.742188 101.957031 C 42.742188 105.078125 38.011719 108.398438 34.886719 108.398438 C 31.757812 108.398438 29.226562 104.289062 29.226562 101.164062 Z M 248.894531 153.335938 C 248.882812 159.3125 248.699219 165.289062 248.363281 171.257812 C 245.511719 171.171875 242.648438 171.085938 239.789062 171.003906 C 242.640625 146.328125 241.851562 119.355469 219.484375 103.847656 C 209.125 96.671875 196.167969 95.699219 184.816406 101.113281 C 172.417969 107.035156 164.277344 118.882812 159.898438 131.550781 C 155.664062 143.792969 154.101562 157.148438 153.335938 170.316406 C 148.929688 170.472656 144.261719 170.640625 139.46875 170.8125 C 140.597656 141.207031 146.734375 108.507812 174.261719 92.390625 C 188.164062 84.25 203.40625 84.5625 217.964844 90.976562 C 232.058594 97.1875 243.285156 107.804688 246.792969 123.160156 C 249.027344 132.949219 248.914062 143.347656 248.894531 153.335938 " fill-opacity="1" fill-rule="nonzero"/><path fill="#62c780" d="M 343.171875 111.539062 C 343.171875 109.027344 347.589844 106.421875 350.105469 106.421875 C 352.617188 106.421875 354.660156 108.457031 354.660156 110.972656 C 354.660156 113.484375 352.617188 116.941406 350.105469 116.941406 C 347.589844 116.941406 343.171875 114.054688 343.171875 111.539062 Z M 69.847656 206.1875 C 69.847656 203.066406 72.378906 200.535156 75.503906 200.535156 C 78.628906 200.535156 82.300781 203.066406 82.300781 206.1875 C 82.300781 209.3125 79.027344 212.847656 75.898438 212.847656 C 72.773438 212.847656 69.847656 209.3125 69.847656 206.1875 Z M 273.546875 135.160156 C 271.417969 136.160156 269.578125 137.667969 268.085938 139.640625 C 261.953125 147.796875 263.425781 162.371094 265.269531 171.773438 C 262.027344 171.671875 258.730469 171.570312 255.390625 171.472656 C 255.730469 165.433594 255.917969 159.386719 255.929688 153.335938 C 255.949219 143.558594 255.894531 133.585938 254.117188 123.941406 C 251.03125 107.183594 240.210938 94.421875 225.246094 86.691406 C 209.960938 78.792969 192.914062 76.246094 176.832031 83.226562 C 162.28125 89.542969 150.617188 101.828125 143.726562 115.972656 C 135.378906 133.101562 133.035156 152.195312 132.410156 171.066406 C 129.429688 171.167969 126.445312 171.269531 123.46875 171.371094 C 125.671875 160.574219 127.910156 142.289062 120.679688 132.476562 C 121.589844 125.332031 122.957031 118.257812 125.386719 111.484375 C 132.121094 92.710938 147.285156 77.34375 165.386719 69.238281 C 185.808594 60.09375 209.984375 60.289062 230.707031 68.355469 C 241.480469 72.542969 250.429688 79.167969 256.796875 88.875 C 262.683594 97.855469 267.105469 107.746094 270.0625 118.0625 C 271.671875 123.679688 272.828125 129.394531 273.546875 135.160156 " fill-opacity="1" fill-rule="nonzero"/><g clip-path="url(#ed2c81d3d3)"><path fill="#fbca3f" d="M 123.105469 6.191406 C 123.105469 3.074219 125.640625 0.542969 128.765625 0.542969 C 131.890625 0.542969 136.621094 3.863281 136.621094 6.988281 C 136.621094 10.109375 131.890625 13.429688 128.765625 13.429688 C 125.640625 13.429688 123.105469 9.316406 123.105469 6.191406 Z M 301.097656 212.347656 C 301.097656 209.222656 303.628906 206.691406 306.753906 206.691406 C 309.878906 206.691406 314.609375 210.011719 314.609375 213.136719 C 314.609375 216.261719 309.878906 219.582031 306.753906 219.582031 C 303.628906 219.582031 301.097656 215.46875 301.097656 212.347656 Z M 295.957031 131.476562 C 295.242188 133.777344 294.667969 136.078125 294.203125 138.257812 C 291.050781 135.992188 287.574219 134.566406 284.484375 134.03125 C 283.128906 133.789062 281.804688 133.671875 280.558594 133.671875 C 280.519531 133.671875 280.484375 133.675781 280.445312 133.675781 C 279.953125 129.871094 279.285156 126.085938 278.429688 122.339844 C 273.46875 100.636719 262.554688 77.15625 242.292969 66.03125 C 201.410156 43.578125 145.582031 57.390625 123.25 99.117188 C 118.503906 107.984375 115.988281 117.507812 114.433594 127.28125 C 112.078125 126.171875 109.410156 125.601562 106.484375 125.601562 C 105.046875 125.601562 103.523438 125.734375 101.957031 126.011719 C 100.984375 126.179688 99.972656 126.433594 98.9375 126.761719 C 99.785156 120.992188 100.90625 115.265625 102.40625 109.601562 C 105.667969 97.292969 110.722656 85.378906 118.152344 74.980469 C 126.113281 63.847656 137.277344 56.320312 149.351562 50.21875 C 161.582031 44.035156 174.9375 39.460938 188.671875 38.371094 C 202.0625 37.304688 215.40625 39.472656 228.144531 43.578125 C 240.652344 47.605469 253.070312 53.296875 264.042969 60.5625 C 275.710938 68.28125 282.949219 79.792969 287.851562 92.695312 C 292.621094 105.253906 294.984375 118.277344 295.957031 131.476562 " fill-opacity="1" fill-rule="nonzero"/></g><g clip-path="url(#5c2e4efc38)"><path fill="#fde9aa" d="M 102.894531 131.398438 C 97.316406 132.367188 89.75 136.683594 85.777344 146.21875 C 85.777344 146.21875 94.683594 92.632812 63.230469 108.214844 C 63.230469 108.214844 40.140625 119.617188 40.523438 146.601562 C 40.523438 146.601562 -3.785156 131.398438 6.195312 178.144531 L 116.207031 178.144531 C 116.207031 178.144531 131.15625 126.480469 102.894531 131.398438 Z M 335.480469 152.074219 C 336.363281 136.011719 332.050781 124.539062 325.042969 119.726562 C 300.945312 103.195312 297.796875 151.753906 297.796875 151.753906 C 295.40625 144.238281 288.191406 140.222656 283.546875 139.414062 C 260.015625 135.320312 272.464844 178.335938 272.464844 178.335938 L 364.058594 178.335938 C 372.371094 139.414062 335.480469 152.074219 335.480469 152.074219 Z M 261.757812 169.339844 C 261.332031 169.332031 260.988281 169.644531 260.96875 170.0625 C 260.945312 170.691406 260.921875 171.316406 260.890625 171.945312 C 260.871094 172.359375 261.195312 172.714844 261.609375 172.734375 C 261.621094 172.734375 261.632812 172.734375 261.644531 172.734375 C 262.046875 172.734375 262.382812 172.417969 262.398438 172.015625 C 262.429688 171.382812 262.457031 170.753906 262.480469 170.125 C 262.5 169.707031 262.175781 169.355469 261.757812 169.339844 Z M 150.300781 96.421875 C 149.480469 97.347656 148.660156 98.308594 147.875 99.28125 C 147.617188 99.609375 147.667969 100.082031 147.992188 100.34375 C 148.128906 100.457031 148.296875 100.511719 148.464844 100.511719 C 148.683594 100.511719 148.902344 100.414062 149.054688 100.230469 C 149.820312 99.277344 150.621094 98.335938 151.429688 97.429688 C 151.707031 97.117188 151.679688 96.636719 151.367188 96.359375 C 151.058594 96.082031 150.578125 96.113281 150.300781 96.421875 Z M 246.527344 95.515625 C 246.242188 95.214844 245.765625 95.199219 245.460938 95.484375 C 245.15625 95.769531 245.140625 96.246094 245.425781 96.550781 C 246.261719 97.441406 247.074219 98.367188 247.84375 99.300781 C 247.992188 99.480469 248.210938 99.574219 248.429688 99.574219 C 248.597656 99.574219 248.769531 99.519531 248.90625 99.40625 C 249.230469 99.140625 249.277344 98.664062 249.011719 98.339844 C 248.222656 97.382812 247.386719 96.433594 246.527344 95.515625 Z M 158.367188 88.597656 C 157.414062 89.394531 156.464844 90.230469 155.550781 91.074219 C 155.242188 91.355469 155.226562 91.832031 155.507812 92.140625 C 155.65625 92.300781 155.859375 92.382812 156.0625 92.382812 C 156.246094 92.382812 156.429688 92.316406 156.574219 92.179688 C 157.472656 91.351562 158.402344 90.539062 159.335938 89.757812 C 159.65625 89.488281 159.699219 89.015625 159.429688 88.691406 C 159.164062 88.375 158.6875 88.328125 158.367188 88.597656 Z M 238.097656 88.050781 C 237.765625 87.804688 237.292969 87.875 237.042969 88.207031 C 236.792969 88.542969 236.867188 89.019531 237.203125 89.265625 C 238.1875 89.992188 239.160156 90.753906 240.089844 91.53125 C 240.230469 91.648438 240.402344 91.703125 240.574219 91.703125 C 240.789062 91.703125 241.003906 91.613281 241.152344 91.433594 C 241.417969 91.113281 241.378906 90.636719 241.054688 90.371094 C 240.101562 89.574219 239.109375 88.796875 238.097656 88.050781 Z M 131.304688 135.613281 C 130.894531 135.511719 130.484375 135.757812 130.386719 136.164062 C 130.089844 137.351562 129.804688 138.574219 129.539062 139.796875 C 129.449219 140.207031 129.707031 140.609375 130.113281 140.699219 C 130.167969 140.710938 130.222656 140.714844 130.277344 140.714844 C 130.625 140.714844 130.9375 140.472656 131.015625 140.121094 C 131.28125 138.910156 131.558594 137.703125 131.851562 136.527344 C 131.953125 136.125 131.707031 135.714844 131.304688 135.613281 Z M 164.164062 85.148438 C 164.308594 85.367188 164.550781 85.480469 164.792969 85.480469 C 164.9375 85.480469 165.082031 85.4375 165.210938 85.355469 C 166.230469 84.671875 167.273438 84.015625 168.316406 83.394531 C 168.675781 83.183594 168.792969 82.71875 168.582031 82.359375 C 168.367188 82.003906 167.90625 81.882812 167.546875 82.097656 C 166.480469 82.730469 165.410156 83.402344 164.371094 84.101562 C 164.023438 84.332031 163.933594 84.800781 164.164062 85.148438 Z M 143.441406 105.320312 C 142.757812 106.351562 142.085938 107.417969 141.441406 108.488281 C 141.230469 108.84375 141.34375 109.308594 141.703125 109.523438 C 141.824219 109.597656 141.957031 109.628906 142.089844 109.628906 C 142.347656 109.628906 142.597656 109.5 142.738281 109.265625 C 143.371094 108.214844 144.03125 107.171875 144.703125 106.160156 C 144.933594 105.808594 144.839844 105.339844 144.492188 105.109375 C 144.144531 104.878906 143.675781 104.972656 143.441406 105.320312 Z M 134.554688 124.972656 C 134.164062 124.832031 133.734375 125.035156 133.59375 125.433594 C 133.183594 126.589844 132.785156 127.78125 132.410156 128.972656 C 132.285156 129.371094 132.503906 129.796875 132.902344 129.921875 C 132.976562 129.949219 133.054688 129.957031 133.128906 129.957031 C 133.449219 129.957031 133.746094 129.753906 133.851562 129.429688 C 134.222656 128.25 134.613281 127.074219 135.019531 125.933594 C 135.15625 125.542969 134.953125 125.109375 134.554688 124.972656 Z M 127.496094 157.53125 C 127.078125 157.484375 126.707031 157.792969 126.667969 158.207031 C 126.539062 159.441406 126.425781 160.675781 126.324219 161.914062 C 126.289062 162.332031 126.59375 162.695312 127.011719 162.730469 C 127.035156 162.734375 127.054688 162.734375 127.078125 162.734375 C 127.464844 162.734375 127.796875 162.433594 127.828125 162.042969 C 127.933594 160.8125 128.042969 159.585938 128.167969 158.359375 C 128.214844 157.945312 127.910156 157.574219 127.496094 157.53125 Z M 129.003906 146.503906 C 128.597656 146.433594 128.203125 146.710938 128.132812 147.125 C 127.929688 148.347656 127.742188 149.578125 127.5625 150.808594 C 127.507812 151.222656 127.792969 151.605469 128.207031 151.664062 C 128.242188 151.667969 128.277344 151.667969 128.3125 151.667969 C 128.683594 151.667969 129.007812 151.398438 129.058594 151.023438 C 129.234375 149.800781 129.421875 148.585938 129.625 147.371094 C 129.691406 146.960938 129.414062 146.570312 129.003906 146.503906 Z M 185.082031 76.597656 C 185.132812 76.597656 185.1875 76.589844 185.242188 76.582031 C 186.425781 76.320312 187.636719 76.097656 188.84375 75.921875 C 189.257812 75.863281 189.542969 75.476562 189.480469 75.0625 C 189.417969 74.652344 189.035156 74.367188 188.621094 74.429688 C 187.382812 74.613281 186.136719 74.839844 184.917969 75.105469 C 184.511719 75.195312 184.253906 75.597656 184.34375 76.003906 C 184.417969 76.359375 184.730469 76.597656 185.082031 76.597656 Z M 261.796875 141.128906 C 261.808594 141.128906 261.820312 141.125 261.832031 141.125 C 262.25 141.109375 262.574219 140.757812 262.550781 140.339844 C 262.496094 139.097656 262.429688 137.855469 262.347656 136.617188 C 262.316406 136.199219 261.964844 135.878906 261.539062 135.914062 C 261.125 135.945312 260.808594 136.304688 260.835938 136.71875 C 260.921875 137.945312 260.988281 139.175781 261.042969 140.40625 C 261.0625 140.808594 261.394531 141.128906 261.796875 141.128906 Z M 227.84375 83.476562 L 227.96875 83.546875 C 229.015625 84.085938 230.054688 84.65625 231.0625 85.242188 C 231.183594 85.308594 231.3125 85.34375 231.441406 85.34375 C 231.703125 85.34375 231.957031 85.210938 232.09375 84.96875 C 232.304688 84.609375 232.183594 84.144531 231.824219 83.933594 C 230.792969 83.335938 229.730469 82.753906 228.664062 82.203125 L 228.53125 82.132812 C 228.160156 81.945312 227.703125 82.089844 227.515625 82.464844 C 227.324219 82.832031 227.46875 83.289062 227.84375 83.476562 Z M 262.003906 147.035156 C 261.996094 147.035156 261.996094 147.035156 261.992188 147.035156 C 261.574219 147.042969 261.242188 147.382812 261.246094 147.800781 C 261.261719 149.035156 261.273438 150.273438 261.273438 151.503906 C 261.277344 151.921875 261.613281 152.257812 262.03125 152.257812 C 262.449219 152.257812 262.789062 151.917969 262.785156 151.5 C 262.78125 150.261719 262.773438 149.019531 262.757812 147.78125 C 262.753906 147.367188 262.414062 147.035156 262.003906 147.035156 Z M 262.023438 158.171875 C 262.019531 158.171875 262.019531 158.171875 262.015625 158.171875 C 261.601562 158.171875 261.261719 158.503906 261.261719 158.917969 C 261.246094 160.152344 261.226562 161.382812 261.203125 162.617188 C 261.191406 163.035156 261.527344 163.382812 261.941406 163.390625 C 261.949219 163.390625 261.953125 163.390625 261.960938 163.390625 C 262.371094 163.390625 262.703125 163.0625 262.714844 162.648438 C 262.738281 161.410156 262.757812 160.171875 262.769531 158.929688 C 262.773438 158.515625 262.441406 158.171875 262.023438 158.171875 Z M 217.722656 79.101562 C 218.859375 79.5 220.011719 79.9375 221.15625 80.402344 C 221.25 80.441406 221.347656 80.457031 221.441406 80.457031 C 221.738281 80.457031 222.023438 80.277344 222.144531 79.984375 C 222.300781 79.597656 222.113281 79.160156 221.726562 79.003906 C 220.558594 78.527344 219.378906 78.082031 218.21875 77.675781 C 217.824219 77.539062 217.398438 77.746094 217.257812 78.136719 C 217.121094 78.53125 217.324219 78.960938 217.722656 79.101562 Z M 196.132812 75.351562 C 196.132812 75.351562 196.136719 75.351562 196.140625 75.351562 L 196.734375 75.347656 C 197.75 75.347656 198.785156 75.375 199.804688 75.433594 C 199.816406 75.433594 199.828125 75.433594 199.84375 75.433594 C 200.242188 75.433594 200.574219 75.121094 200.597656 74.722656 C 200.621094 74.300781 200.300781 73.949219 199.886719 73.925781 C 198.835938 73.867188 197.777344 73.839844 196.734375 73.839844 L 196.125 73.84375 C 195.707031 73.847656 195.371094 74.191406 195.375 74.605469 C 195.382812 75.019531 195.71875 75.351562 196.132812 75.351562 Z M 207.347656 74.796875 C 206.9375 74.71875 206.542969 74.996094 206.46875 75.40625 C 206.398438 75.816406 206.671875 76.207031 207.085938 76.28125 C 208.269531 76.492188 209.476562 76.746094 210.675781 77.027344 C 210.734375 77.042969 210.792969 77.046875 210.851562 77.046875 C 211.191406 77.046875 211.503906 76.816406 211.585938 76.46875 C 211.683594 76.0625 211.433594 75.65625 211.023438 75.558594 C 209.800781 75.269531 208.5625 75.011719 207.347656 74.796875 Z M 258.316406 114.582031 C 258.175781 114.1875 257.742188 113.984375 257.347656 114.128906 C 256.957031 114.273438 256.753906 114.707031 256.898438 115.097656 C 257.3125 116.234375 257.691406 117.402344 258.035156 118.574219 C 258.128906 118.90625 258.429688 119.121094 258.757812 119.121094 C 258.828125 119.121094 258.898438 119.113281 258.96875 119.089844 C 259.371094 118.976562 259.601562 118.558594 259.484375 118.15625 C 259.132812 116.949219 258.742188 115.746094 258.316406 114.582031 Z M 253.394531 104.449219 C 253.175781 104.09375 252.710938 103.984375 252.355469 104.203125 C 251.996094 104.425781 251.886719 104.890625 252.109375 105.242188 C 252.75 106.277344 253.363281 107.34375 253.929688 108.414062 C 254.066406 108.671875 254.328125 108.820312 254.597656 108.820312 C 254.71875 108.820312 254.839844 108.789062 254.953125 108.730469 C 255.320312 108.535156 255.460938 108.078125 255.265625 107.710938 C 254.683594 106.605469 254.050781 105.507812 253.394531 104.449219 Z M 138.894531 114.726562 C 138.519531 114.546875 138.066406 114.703125 137.886719 115.078125 C 137.351562 116.1875 136.824219 117.332031 136.328125 118.476562 C 136.160156 118.859375 136.335938 119.304688 136.71875 119.472656 C 136.816406 119.511719 136.921875 119.535156 137.019531 119.535156 C 137.3125 119.535156 137.589844 119.367188 137.714844 119.082031 C 138.203125 117.957031 138.71875 116.828125 139.25 115.734375 C 139.429688 115.355469 139.273438 114.90625 138.894531 114.726562 Z M 174.519531 80.089844 C 174.625 80.089844 174.730469 80.066406 174.828125 80.019531 L 175.421875 79.761719 C 176.347656 79.359375 177.289062 78.980469 178.222656 78.636719 C 178.609375 78.492188 178.8125 78.058594 178.667969 77.667969 C 178.523438 77.273438 178.089844 77.074219 177.695312 77.21875 C 176.738281 77.574219 175.769531 77.960938 174.820312 78.375 L 174.210938 78.644531 C 173.832031 78.816406 173.660156 79.261719 173.832031 79.640625 C 173.957031 79.921875 174.234375 80.089844 174.519531 80.089844 Z M 260.980469 130.03125 C 261.394531 129.976562 261.6875 129.601562 261.632812 129.1875 C 261.476562 127.925781 261.296875 126.683594 261.101562 125.484375 C 261.03125 125.074219 260.648438 124.796875 260.234375 124.863281 C 259.820312 124.929688 259.542969 125.320312 259.605469 125.730469 C 259.800781 126.90625 259.980469 128.132812 260.136719 129.375 C 260.183594 129.757812 260.511719 130.035156 260.886719 130.035156 C 260.917969 130.035156 260.949219 130.035156 260.980469 130.03125 Z M 126.613281 168.628906 C 126.195312 168.605469 125.839844 168.925781 125.816406 169.34375 C 125.785156 169.972656 125.75 170.605469 125.722656 171.234375 C 125.703125 171.652344 126.027344 172.003906 126.441406 172.027344 C 126.453125 172.027344 126.464844 172.027344 126.476562 172.027344 C 126.878906 172.027344 127.210938 171.710938 127.230469 171.304688 C 127.257812 170.679688 127.292969 170.050781 127.324219 169.425781 C 127.347656 169.007812 127.03125 168.652344 126.613281 168.628906 Z M 90.542969 114.59375 C 91.769531 114.59375 92.828125 113.761719 93.121094 112.558594 C 93.449219 111.144531 92.566406 109.722656 91.15625 109.382812 C 90.957031 109.335938 90.75 109.3125 90.546875 109.3125 C 89.835938 109.3125 89.167969 109.613281 88.675781 110.113281 L 90.371094 114.574219 C 90.425781 114.582031 90.488281 114.59375 90.542969 114.59375 Z M 240.226562 34.484375 C 239.921875 34.367188 239.597656 34.304688 239.269531 34.304688 C 238.167969 34.304688 237.199219 34.96875 236.800781 36 C 236.285156 37.355469 236.96875 38.886719 238.328125 39.410156 C 238.632812 39.53125 238.957031 39.589844 239.269531 39.589844 C 240.355469 39.589844 241.351562 38.910156 241.742188 37.898438 C 241.996094 37.242188 241.976562 36.519531 241.691406 35.875 C 241.402344 35.230469 240.882812 34.734375 240.226562 34.484375 Z M 223.5 34.597656 C 223.714844 34.660156 223.933594 34.691406 224.195312 34.691406 C 225.394531 34.691406 226.445312 33.878906 226.746094 32.71875 C 227.113281 31.3125 226.269531 29.867188 224.863281 29.5 C 224.640625 29.4375 224.410156 29.40625 224.179688 29.40625 C 222.984375 29.40625 221.9375 30.21875 221.636719 31.375 C 221.453125 32.054688 221.542969 32.765625 221.898438 33.375 C 222.253906 33.988281 222.832031 34.425781 223.5 34.597656 Z M 208.292969 31.632812 L 209.148438 31.738281 L 209.148438 31.597656 C 210.242188 31.375 211.105469 30.476562 211.25 29.339844 C 211.433594 27.898438 210.402344 26.574219 208.957031 26.382812 C 208.847656 26.371094 208.734375 26.359375 208.628906 26.359375 C 207.292969 26.359375 206.167969 27.359375 206.003906 28.675781 C 205.828125 30.117188 206.855469 31.441406 208.292969 31.632812 Z M 290.207031 75.386719 C 290.695312 75.386719 291.171875 75.25 291.59375 74.996094 C 292.835938 74.238281 293.226562 72.605469 292.464844 71.359375 C 291.980469 70.570312 291.136719 70.101562 290.207031 70.101562 C 289.722656 70.101562 289.242188 70.234375 288.820312 70.492188 C 287.582031 71.257812 287.195312 72.890625 287.953125 74.125 C 288.4375 74.914062 289.28125 75.386719 290.207031 75.386719 Z M 299.746094 102.648438 C 300.058594 103.796875 301.109375 104.597656 302.296875 104.597656 C 302.554688 104.597656 302.78125 104.570312 302.996094 104.507812 C 304.402344 104.128906 305.238281 102.675781 304.855469 101.265625 C 304.542969 100.117188 303.492188 99.316406 302.300781 99.316406 C 302.066406 99.316406 301.835938 99.34375 301.609375 99.40625 C 300.207031 99.789062 299.371094 101.242188 299.746094 102.648438 Z M 192.796875 30.871094 L 192.871094 30.871094 L 192.886719 30.867188 C 194.335938 30.816406 195.484375 29.59375 195.441406 28.140625 C 195.390625 26.707031 194.226562 25.582031 192.792969 25.582031 L 192.714844 25.585938 C 192.007812 25.601562 191.351562 25.902344 190.867188 26.417969 C 190.382812 26.9375 190.128906 27.609375 190.152344 28.308594 C 190.195312 29.742188 191.359375 30.871094 192.796875 30.871094 Z M 254.988281 40.796875 C 254.628906 40.625 254.25 40.542969 253.855469 40.542969 C 252.839844 40.542969 251.902344 41.132812 251.464844 42.054688 C 250.84375 43.371094 251.414062 44.949219 252.734375 45.574219 C 253.09375 45.742188 253.46875 45.828125 253.855469 45.828125 C 254.882812 45.828125 255.824219 45.226562 256.25 44.308594 C 256.550781 43.671875 256.585938 42.957031 256.347656 42.292969 C 256.113281 41.628906 255.628906 41.097656 254.988281 40.796875 Z M 297.265625 89.574219 C 297.597656 89.574219 297.929688 89.507812 298.261719 89.378906 C 299.613281 88.828125 300.265625 87.28125 299.71875 85.933594 C 299.3125 84.933594 298.351562 84.28125 297.273438 84.28125 C 296.933594 84.28125 296.597656 84.351562 296.28125 84.476562 C 294.933594 85.027344 294.277344 86.566406 294.8125 87.917969 C 295.222656 88.921875 296.1875 89.574219 297.265625 89.574219 Z M 133.066406 44.960938 C 132.574219 44.960938 132.097656 45.097656 131.679688 45.359375 C 130.441406 46.128906 130.058594 47.765625 130.828125 49.007812 C 131.316406 49.785156 132.160156 50.25 133.078125 50.25 C 133.574219 50.25 134.058594 50.113281 134.472656 49.847656 C 135.710938 49.078125 136.089844 47.445312 135.316406 46.210938 C 134.832031 45.429688 133.988281 44.960938 133.066406 44.960938 Z M 108.117188 70.867188 C 108.578125 71.207031 109.121094 71.382812 109.6875 71.382812 C 110.523438 71.382812 111.320312 70.984375 111.816406 70.316406 C 112.675781 69.152344 112.429688 67.496094 111.265625 66.617188 C 110.808594 66.28125 110.269531 66.101562 109.699219 66.101562 C 108.859375 66.101562 108.0625 66.5 107.5625 67.175781 C 107.144531 67.742188 106.972656 68.4375 107.074219 69.136719 C 107.175781 69.832031 107.546875 70.449219 108.117188 70.867188 Z M 177.042969 32.65625 C 177.210938 32.65625 177.378906 32.640625 177.550781 32.609375 C 178.980469 32.332031 179.917969 30.945312 179.644531 29.511719 C 179.40625 28.269531 178.3125 27.371094 177.050781 27.371094 C 176.882812 27.371094 176.714844 27.382812 176.546875 27.417969 C 175.855469 27.550781 175.253906 27.941406 174.859375 28.527344 C 174.464844 29.113281 174.316406 29.816406 174.453125 30.511719 C 174.6875 31.753906 175.78125 32.65625 177.042969 32.65625 Z M 100.164062 84.578125 C 100.535156 84.773438 100.957031 84.875 101.378906 84.875 C 102.375 84.875 103.277344 84.324219 103.730469 83.441406 C 104.050781 82.8125 104.109375 82.09375 103.894531 81.421875 C 103.679688 80.75 103.214844 80.199219 102.585938 79.875 C 102.210938 79.683594 101.792969 79.585938 101.375 79.585938 C 100.378906 79.585938 99.472656 80.136719 99.023438 81.019531 C 98.699219 81.648438 98.640625 82.367188 98.859375 83.042969 C 99.078125 83.710938 99.542969 84.257812 100.164062 84.578125 Z M 120.339844 54.386719 C 119.6875 54.386719 119.0625 54.621094 118.578125 55.054688 C 118.050781 55.527344 117.742188 56.171875 117.699219 56.878906 C 117.660156 57.582031 117.898438 58.261719 118.363281 58.78125 C 118.859375 59.347656 119.578125 59.671875 120.335938 59.671875 C 120.988281 59.671875 121.617188 59.433594 122.101562 59 C 123.183594 58.035156 123.28125 56.359375 122.3125 55.265625 C 121.8125 54.703125 121.089844 54.386719 120.339844 54.386719 Z M 94.171875 99.257812 C 94.476562 99.359375 94.769531 99.410156 95.070312 99.410156 C 96.175781 99.410156 97.175781 98.710938 97.554688 97.667969 C 98.050781 96.296875 97.339844 94.78125 95.96875 94.285156 C 95.679688 94.179688 95.375 94.125 95.066406 94.125 C 94.144531 94.125 93.300781 94.609375 92.828125 95.371094 L 92.753906 95.371094 L 92.574219 95.875 C 92.089844 97.242188 92.800781 98.757812 94.171875 99.257812 Z M 270.050781 52.128906 C 270.816406 50.894531 270.445312 49.261719 269.214844 48.488281 C 268.792969 48.222656 268.308594 48.082031 267.8125 48.082031 C 266.894531 48.082031 266.054688 48.542969 265.574219 49.308594 C 264.792969 50.542969 265.164062 52.175781 266.398438 52.957031 C 266.824219 53.226562 267.308594 53.367188 267.804688 53.367188 C 268.710938 53.367188 269.550781 52.90625 270.050781 52.128906 Z M 161.59375 36.96875 L 162.59375 36.628906 C 163.261719 36.398438 163.800781 35.917969 164.109375 35.285156 C 164.417969 34.648438 164.464844 33.933594 164.234375 33.265625 C 163.867188 32.199219 162.863281 31.480469 161.738281 31.480469 C 161.445312 31.480469 161.15625 31.53125 160.878906 31.628906 C 160.207031 31.855469 159.671875 32.332031 159.359375 32.96875 C 159.050781 33.601562 159.007812 34.316406 159.238281 34.976562 C 159.582031 36 160.519531 36.703125 161.59375 36.761719 Z M 149.539062 41.019531 C 149.78125 40.355469 149.746094 39.640625 149.445312 39.007812 C 149.015625 38.078125 148.074219 37.476562 147.050781 37.476562 C 146.660156 37.476562 146.285156 37.5625 145.9375 37.726562 C 144.617188 38.339844 144.042969 39.910156 144.652344 41.234375 C 145.082031 42.160156 146.023438 42.761719 147.054688 42.761719 C 147.449219 42.761719 147.824219 42.675781 148.164062 42.515625 C 148.808594 42.214844 149.296875 41.6875 149.539062 41.019531 Z M 280.371094 63.003906 C 281.089844 63.003906 281.789062 62.707031 282.285156 62.1875 C 283.289062 61.132812 283.253906 59.457031 282.210938 58.457031 C 281.710938 57.976562 281.058594 57.714844 280.371094 57.714844 C 279.648438 57.714844 278.972656 58 278.464844 58.527344 C 277.464844 59.578125 277.496094 61.25 278.542969 62.265625 C 279.039062 62.742188 279.6875 63.003906 280.371094 63.003906 Z M 231.949219 133.441406 C 235.316406 145.609375 234.503906 158.339844 232.863281 170.800781 C 229.246094 170.695312 225.648438 170.59375 222.105469 170.5 C 222.144531 160.023438 221.292969 149.492188 219.269531 139.230469 C 217.234375 128.902344 210.261719 120.957031 198.953125 122.3125 C 187.945312 123.632812 180.953125 133.367188 177.535156 143.097656 C 174.550781 151.582031 172.824219 160.6875 171.53125 169.746094 C 170.53125 169.761719 169.585938 169.78125 168.714844 169.808594 C 166.183594 169.882812 163.410156 169.96875 160.457031 170.070312 C 161.0625 161.027344 162.074219 151.992188 163.984375 143.199219 C 166.59375 131.222656 171.511719 119.429688 181.3125 111.582031 C 190.328125 104.363281 202.316406 102.234375 212.671875 107.902344 C 222.308594 113.171875 229.054688 122.988281 231.949219 133.441406 " fill-opacity="1" fill-rule="nonzero"/></g><g clip-path="url(#cd4b5c2305)"><path fill="#f46799" d="M 223.058594 194.589844 C 223.058594 191.46875 225.589844 188.9375 228.714844 188.9375 C 231.839844 188.9375 236.574219 192.257812 236.574219 195.382812 C 236.574219 198.503906 231.839844 201.824219 228.714844 201.824219 C 225.589844 201.824219 223.058594 197.714844 223.058594 194.589844 Z M 309.152344 20.242188 C 309.152344 17.121094 311.6875 14.589844 314.808594 14.589844 C 317.933594 14.589844 322.667969 17.910156 322.667969 21.035156 C 322.667969 24.15625 317.933594 27.480469 314.808594 27.480469 C 311.6875 27.480469 309.152344 23.363281 309.152344 20.242188 Z M 334.394531 170.089844 C 333.355469 170.089844 332.507812 170.933594 332.507812 171.976562 C 332.507812 173.019531 333.355469 173.863281 334.394531 173.863281 C 335.441406 173.863281 336.285156 173.019531 336.285156 171.976562 C 336.285156 170.933594 335.441406 170.089844 334.394531 170.089844 Z M 363.109375 170.089844 C 362.066406 170.089844 361.21875 170.933594 361.21875 171.976562 C 361.21875 173.019531 362.066406 173.863281 363.109375 173.863281 C 364.152344 173.863281 364.996094 173.019531 364.996094 171.976562 C 364.996094 170.933594 364.152344 170.089844 363.109375 170.089844 Z M 348.753906 170.089844 C 347.710938 170.089844 346.863281 170.933594 346.863281 171.976562 C 346.863281 173.019531 347.710938 173.863281 348.753906 173.863281 C 349.796875 173.863281 350.640625 173.019531 350.640625 171.976562 C 350.640625 170.933594 349.796875 170.089844 348.753906 170.089844 Z M 291.328125 170.089844 C 290.285156 170.089844 289.4375 170.933594 289.4375 171.976562 C 289.4375 173.019531 290.285156 173.863281 291.328125 173.863281 C 292.371094 173.863281 293.214844 173.019531 293.214844 171.976562 C 293.214844 170.933594 292.371094 170.089844 291.328125 170.089844 Z M 320.039062 170.089844 C 318.996094 170.089844 318.152344 170.933594 318.152344 171.976562 C 318.152344 173.019531 318.996094 173.863281 320.039062 173.863281 C 321.085938 173.863281 321.929688 173.019531 321.929688 171.976562 C 321.929688 170.933594 321.085938 170.089844 320.039062 170.089844 Z M 305.683594 170.089844 C 304.640625 170.089844 303.792969 170.933594 303.792969 171.976562 C 303.792969 173.019531 304.640625 173.863281 305.683594 173.863281 C 306.726562 173.863281 307.574219 173.019531 307.574219 171.976562 C 307.574219 170.933594 306.726562 170.089844 305.683594 170.089844 Z M 276.972656 170.089844 C 275.929688 170.089844 275.082031 170.933594 275.082031 171.976562 C 275.082031 173.019531 275.929688 173.863281 276.972656 173.863281 C 278.015625 173.863281 278.859375 173.019531 278.859375 171.976562 C 278.859375 170.933594 278.015625 170.089844 276.972656 170.089844 Z M 31.117188 168.910156 C 30.074219 168.910156 29.226562 169.757812 29.226562 170.800781 C 29.226562 171.839844 30.074219 172.6875 31.117188 172.6875 C 32.15625 172.6875 33.003906 171.839844 33.003906 170.800781 C 33.003906 169.757812 32.15625 168.910156 31.117188 168.910156 Z M 45.472656 168.910156 C 44.429688 168.910156 43.582031 169.757812 43.582031 170.800781 C 43.582031 171.839844 44.429688 172.6875 45.472656 172.6875 C 46.515625 172.6875 47.363281 171.839844 47.363281 170.800781 C 47.363281 169.757812 46.515625 168.910156 45.472656 168.910156 Z M 16.761719 168.910156 C 15.71875 168.910156 14.871094 169.757812 14.871094 170.800781 C 14.871094 171.839844 15.71875 172.6875 16.761719 172.6875 C 17.800781 172.6875 18.648438 171.839844 18.648438 170.800781 C 18.648438 169.757812 17.800781 168.910156 16.761719 168.910156 Z M 2.402344 168.910156 C 1.363281 168.910156 0.515625 169.757812 0.515625 170.800781 C 0.515625 171.839844 1.363281 172.6875 2.402344 172.6875 C 3.445312 172.6875 4.292969 171.839844 4.292969 170.800781 C 4.292969 169.757812 3.445312 168.910156 2.402344 168.910156 Z M 59.828125 168.910156 C 58.785156 168.910156 57.941406 169.757812 57.941406 170.800781 C 57.941406 171.839844 58.785156 172.6875 59.828125 172.6875 C 60.871094 172.6875 61.71875 171.839844 61.71875 170.800781 C 61.71875 169.757812 60.871094 168.910156 59.828125 168.910156 Z M 74.183594 168.910156 C 73.144531 168.910156 72.296875 169.757812 72.296875 170.800781 C 72.296875 171.839844 73.144531 172.6875 74.183594 172.6875 C 75.226562 172.6875 76.074219 171.839844 76.074219 170.800781 C 76.074219 169.757812 75.226562 168.910156 74.183594 168.910156 Z M 102.898438 168.910156 C 101.855469 168.910156 101.007812 169.757812 101.007812 170.800781 C 101.007812 171.839844 101.855469 172.6875 102.898438 172.6875 C 103.941406 172.6875 104.785156 171.839844 104.785156 170.800781 C 104.785156 169.757812 103.941406 168.910156 102.898438 168.910156 Z M 88.542969 168.910156 C 87.5 168.910156 86.652344 169.757812 86.652344 170.800781 C 86.652344 171.839844 87.5 172.6875 88.542969 172.6875 C 89.582031 172.6875 90.429688 171.839844 90.429688 170.800781 C 90.429688 169.757812 89.582031 168.910156 88.542969 168.910156 Z M 117.253906 168.910156 C 116.210938 168.910156 115.363281 169.757812 115.363281 170.800781 C 115.363281 171.839844 116.210938 172.6875 117.253906 172.6875 C 118.296875 172.6875 119.144531 171.839844 119.144531 170.800781 C 119.144531 169.757812 118.296875 168.910156 117.253906 168.910156 Z M 304.128906 101.464844 C 303.855469 100.460938 302.8125 99.863281 301.808594 100.136719 C 300.804688 100.40625 300.207031 101.441406 300.476562 102.453125 C 300.703125 103.292969 301.46875 103.84375 302.296875 103.84375 C 302.464844 103.84375 302.632812 103.828125 302.796875 103.78125 C 303.804688 103.511719 304.398438 102.46875 304.128906 101.464844 Z M 299.019531 86.222656 C 298.625 85.253906 297.53125 84.785156 296.5625 85.179688 C 295.597656 85.570312 295.128906 86.667969 295.515625 87.632812 C 295.816406 88.371094 296.519531 88.820312 297.265625 88.820312 C 297.5 88.820312 297.742188 88.773438 297.976562 88.679688 C 298.9375 88.289062 299.410156 87.1875 299.019531 86.222656 Z M 291.820312 71.753906 C 291.273438 70.871094 290.109375 70.59375 289.21875 71.136719 C 288.328125 71.6875 288.058594 72.847656 288.601562 73.734375 C 288.953125 74.3125 289.574219 74.628906 290.207031 74.628906 C 290.550781 74.628906 290.890625 74.542969 291.199219 74.351562 C 292.089844 73.808594 292.363281 72.644531 291.820312 71.753906 Z M 281.6875 59 C 280.933594 58.277344 279.738281 58.300781 279.011719 59.046875 C 278.292969 59.800781 278.316406 60.996094 279.0625 61.71875 C 279.433594 62.074219 279.90625 62.25 280.371094 62.25 C 280.871094 62.25 281.367188 62.050781 281.742188 61.667969 C 282.457031 60.914062 282.433594 59.71875 281.6875 59 Z M 268.808594 49.125 C 267.9375 48.574219 266.765625 48.835938 266.210938 49.714844 C 265.652344 50.597656 265.917969 51.761719 266.804688 52.316406 C 267.109375 52.515625 267.457031 52.613281 267.804688 52.613281 C 268.433594 52.613281 269.046875 52.296875 269.410156 51.730469 C 269.960938 50.847656 269.695312 49.683594 268.808594 49.125 Z M 254.667969 41.476562 C 253.722656 41.03125 252.597656 41.433594 252.152344 42.375 C 251.707031 43.320312 252.113281 44.441406 253.058594 44.886719 C 253.3125 45.007812 253.585938 45.070312 253.855469 45.070312 C 254.570312 45.070312 255.246094 44.671875 255.566406 43.984375 C 256.011719 43.046875 255.609375 41.921875 254.667969 41.476562 Z M 239.957031 35.1875 C 238.980469 34.8125 237.882812 35.292969 237.503906 36.269531 C 237.136719 37.242188 237.621094 38.328125 238.59375 38.707031 C 238.8125 38.789062 239.050781 38.832031 239.269531 38.832031 C 240.03125 38.832031 240.75 38.375 241.035156 37.628906 C 241.414062 36.652344 240.921875 35.558594 239.957031 35.1875 Z M 224.667969 30.226562 C 223.65625 29.957031 222.628906 30.5625 222.363281 31.574219 C 222.09375 32.574219 222.699219 33.609375 223.710938 33.871094 C 223.871094 33.921875 224.027344 33.933594 224.195312 33.933594 C 225.023438 33.933594 225.792969 33.375 226.015625 32.53125 C 226.277344 31.519531 225.671875 30.492188 224.667969 30.226562 Z M 208.859375 27.128906 C 207.828125 27.003906 206.882812 27.734375 206.753906 28.769531 C 206.625 29.804688 207.359375 30.75 208.394531 30.886719 L 208.394531 30.875 C 208.46875 30.890625 208.550781 30.890625 208.628906 30.890625 C 209.566406 30.890625 210.382812 30.199219 210.503906 29.246094 C 210.628906 28.210938 209.898438 27.265625 208.859375 27.128906 Z M 194.6875 28.164062 C 194.648438 27.125 193.78125 26.308594 192.738281 26.339844 C 191.695312 26.371094 190.871094 27.246094 190.910156 28.285156 C 190.9375 29.308594 191.777344 30.117188 192.796875 30.117188 C 192.8125 30.117188 192.835938 30.117188 192.859375 30.117188 C 193.902344 30.078125 194.71875 29.207031 194.6875 28.164062 Z M 178.902344 29.652344 C 178.707031 28.636719 177.714844 27.960938 176.6875 28.15625 C 175.660156 28.355469 174.996094 29.351562 175.191406 30.371094 C 175.367188 31.277344 176.160156 31.902344 177.042969 31.902344 C 177.164062 31.902344 177.285156 31.886719 177.40625 31.863281 C 178.425781 31.667969 179.101562 30.683594 178.902344 29.652344 Z M 163.519531 33.511719 C 163.179688 32.523438 162.105469 32.003906 161.121094 32.34375 C 160.132812 32.679688 159.613281 33.75 159.953125 34.734375 C 160.214844 35.519531 160.949219 36.011719 161.738281 36.011719 C 161.941406 36.011719 162.144531 35.980469 162.347656 35.90625 L 162.347656 35.914062 C 163.335938 35.570312 163.859375 34.492188 163.519531 33.511719 Z M 148.761719 39.328125 C 148.324219 38.382812 147.199219 37.964844 146.253906 38.410156 C 145.308594 38.847656 144.902344 39.964844 145.339844 40.917969 C 145.65625 41.605469 146.34375 42.007812 147.054688 42.007812 C 147.320312 42.007812 147.589844 41.953125 147.847656 41.832031 C 148.792969 41.394531 149.207031 40.269531 148.761719 39.328125 Z M 134.675781 46.609375 C 134.125 45.730469 132.960938 45.449219 132.078125 46 C 131.195312 46.550781 130.914062 47.714844 131.464844 48.605469 C 131.828125 49.179688 132.449219 49.496094 133.078125 49.496094 C 133.417969 49.496094 133.765625 49.402344 134.074219 49.210938 C 134.957031 48.65625 135.230469 47.496094 134.675781 46.609375 Z M 121.75 55.769531 C 121.054688 54.992188 119.859375 54.925781 119.082031 55.617188 C 118.304688 56.3125 118.238281 57.507812 118.929688 58.285156 C 119.300781 58.707031 119.816406 58.917969 120.335938 58.917969 C 120.785156 58.917969 121.234375 58.757812 121.597656 58.433594 C 122.367188 57.746094 122.445312 56.554688 121.75 55.769531 Z M 110.816406 67.222656 C 109.976562 66.605469 108.792969 66.785156 108.171875 67.625 C 107.550781 68.460938 107.726562 69.640625 108.566406 70.257812 C 108.902344 70.507812 109.296875 70.628906 109.6875 70.628906 C 110.265625 70.628906 110.839844 70.363281 111.210938 69.867188 C 111.828125 69.027344 111.644531 67.847656 110.816406 67.222656 Z M 102.238281 80.550781 C 101.308594 80.074219 100.171875 80.4375 99.695312 81.367188 C 99.21875 82.296875 99.589844 83.433594 100.519531 83.910156 C 100.789062 84.054688 101.085938 84.121094 101.378906 84.121094 C 102.058594 84.121094 102.722656 83.742188 103.058594 83.09375 C 103.53125 82.164062 103.167969 81.027344 102.238281 80.550781 Z M 95.710938 94.996094 C 94.730469 94.636719 93.652344 95.144531 93.292969 96.128906 C 93.289062 96.128906 93.289062 96.128906 93.289062 96.128906 C 92.9375 97.105469 93.445312 98.1875 94.421875 98.542969 C 94.640625 98.617188 94.851562 98.65625 95.070312 98.65625 C 95.839844 98.65625 96.566406 98.179688 96.84375 97.410156 C 97.199219 96.429688 96.695312 95.347656 95.710938 94.996094 Z M 306.148438 81.113281 C 310.636719 90.683594 313.660156 100.648438 315.707031 110.828125 C 309.589844 110.867188 305.0625 114.226562 301.707031 119.015625 C 300.640625 111.515625 299.035156 104.085938 296.710938 96.78125 C 292.585938 83.824219 286.390625 70.378906 276.171875 61.082031 C 266.097656 51.917969 253.046875 45.753906 240.546875 40.652344 C 227.375 35.273438 213.355469 31.640625 199.089844 31.125 C 184.824219 30.609375 170.648438 33.574219 157.441406 38.882812 C 144.613281 44.046875 131.664062 50.792969 121.558594 60.378906 C 111.667969 69.761719 104.738281 82.007812 99.859375 94.625 C 96.132812 104.257812 93.699219 114.222656 92.140625 124.351562 C 91.816406 120.667969 91.175781 116.96875 90.070312 113.609375 C 90.089844 113.671875 90.113281 113.730469 90.136719 113.796875 C 90.277344 113.824219 90.410156 113.839844 90.542969 113.839844 C 91.398438 113.839844 92.175781 113.257812 92.386719 112.390625 C 92.621094 111.378906 91.996094 110.359375 90.980469 110.117188 C 90.21875 109.933594 89.453125 110.246094 89.015625 110.847656 C 89.03125 110.878906 89.039062 110.90625 89.054688 110.9375 C 88.191406 108.96875 87.136719 107.171875 85.832031 105.632812 C 82.730469 101.980469 78.550781 100.011719 73.722656 99.914062 C 76.238281 90.363281 80.195312 81.261719 85.761719 72.820312 C 101.582031 48.824219 126.746094 33.066406 153.542969 23.835938 C 181.796875 14.105469 213.804688 11.351562 241.699219 23.742188 C 255.125 29.707031 268.085938 38.238281 279.574219 47.347656 C 291.027344 56.433594 299.945312 67.890625 306.148438 81.113281 Z M 236.820312 65.351562 C 237.25 65.546875 237.675781 65.746094 238.105469 65.949219 L 243.289062 55.039062 C 242.808594 54.808594 242.324219 54.582031 241.839844 54.363281 Z M 225.59375 61.160156 C 226.046875 61.296875 226.496094 61.429688 226.949219 61.574219 L 230.558594 50.042969 C 230.046875 49.886719 229.535156 49.730469 229.023438 49.574219 Z M 247.058594 71.050781 C 247.429688 71.3125 247.796875 71.578125 248.160156 71.84375 L 255.351562 62.128906 C 254.902344 61.804688 254.453125 61.480469 253.996094 61.15625 Z M 213.871094 58.550781 C 214.332031 58.621094 214.800781 58.695312 215.261719 58.773438 L 217.28125 46.863281 C 216.753906 46.773438 216.222656 46.6875 215.695312 46.609375 Z M 291.589844 131.574219 L 279.632812 133.359375 C 279.652344 133.472656 279.664062 133.585938 279.683594 133.695312 C 279.96875 133.679688 280.261719 133.671875 280.558594 133.671875 C 281.804688 133.671875 283.128906 133.789062 284.484375 134.03125 C 284.59375 134.046875 284.710938 134.078125 284.820312 134.097656 L 291.8125 133.140625 C 291.742188 132.621094 291.667969 132.09375 291.589844 131.574219 Z M 273.167969 81.242188 L 263.097656 87.925781 C 263.355469 88.316406 263.613281 88.703125 263.863281 89.097656 L 274.050781 82.597656 C 273.761719 82.140625 273.46875 81.691406 273.167969 81.242188 Z M 264.597656 70.378906 L 255.792969 78.65625 C 256.109375 78.992188 256.417969 79.328125 256.730469 79.671875 L 265.707031 71.582031 C 265.339844 71.179688 264.972656 70.773438 264.597656 70.378906 Z M 201.871094 57.523438 C 202.347656 57.53125 202.820312 57.546875 203.292969 57.5625 L 203.714844 45.492188 C 203.183594 45.46875 202.648438 45.453125 202.109375 45.445312 Z M 175.09375 48.441406 L 177.972656 60.175781 C 178.433594 60.0625 178.894531 59.953125 179.355469 59.847656 L 176.648438 48.074219 C 176.128906 48.195312 175.613281 48.316406 175.09375 48.441406 Z M 112.085938 97.316406 L 122.910156 102.695312 C 123.117188 102.28125 123.324219 101.871094 123.539062 101.460938 L 112.828125 95.863281 C 112.574219 96.347656 112.328125 96.828125 112.085938 97.316406 Z M 118.964844 112.371094 L 107.476562 108.589844 C 107.308594 109.101562 107.144531 109.613281 106.984375 110.125 L 118.53125 113.710938 C 118.671875 113.261719 118.816406 112.816406 118.964844 112.371094 Z M 289.324219 119.945312 C 289.203125 119.4375 289.078125 118.929688 288.953125 118.414062 L 277.226562 121.355469 C 277.34375 121.824219 277.457031 122.292969 277.570312 122.757812 Z M 279.90625 93.109375 L 269.023438 98.367188 C 269.230469 98.796875 269.4375 99.222656 269.636719 99.65625 L 280.59375 94.550781 C 280.367188 94.066406 280.136719 93.585938 279.90625 93.109375 Z M 188.5 46.070312 L 189.839844 58.070312 C 190.308594 58.023438 190.78125 57.972656 191.25 57.925781 L 190.097656 45.902344 C 189.5625 45.953125 189.03125 46.007812 188.5 46.070312 Z M 285.089844 105.578125 L 273.695312 109.605469 C 273.855469 110.058594 274.011719 110.511719 274.167969 110.96875 L 285.613281 107.074219 C 285.441406 106.574219 285.269531 106.074219 285.089844 105.578125 Z M 103.78125 123.277344 L 115.667969 125.480469 C 115.753906 125.011719 115.847656 124.539062 115.941406 124.066406 L 104.078125 121.730469 C 103.976562 122.246094 103.878906 122.761719 103.78125 123.277344 Z M 149.742188 58.371094 L 155.632812 68.921875 C 156.046875 68.691406 156.460938 68.464844 156.871094 68.246094 L 151.152344 57.601562 C 150.679688 57.855469 150.210938 58.109375 149.742188 58.371094 Z M 162.09375 52.554688 L 166.496094 63.804688 C 166.9375 63.632812 167.378906 63.464844 167.820312 63.296875 L 163.597656 51.980469 C 163.09375 52.167969 162.59375 52.359375 162.09375 52.554688 Z M 119.191406 85.519531 L 129.035156 92.53125 C 129.308594 92.144531 129.585938 91.765625 129.863281 91.390625 L 120.144531 84.203125 C 119.824219 84.640625 119.507812 85.078125 119.191406 85.519531 Z M 128.007812 74.964844 L 136.675781 83.386719 C 137 83.050781 137.332031 82.71875 137.664062 82.390625 L 129.148438 73.8125 C 128.765625 74.191406 128.382812 74.578125 128.007812 74.964844 Z M 139.578125 64.902344 L 146.746094 74.628906 C 146.363281 74.910156 145.988281 75.191406 145.613281 75.476562 L 138.285156 65.867188 C 138.714844 65.542969 139.144531 65.222656 139.578125 64.902344 " fill-opacity="1" fill-rule="nonzero"/></g><g clip-path="url(#10fb541a06)"><g clip-path="url(#3efd2543cd)"><g transform="matrix(1, 0, 0, 1, 196, 186)"><g clip-path="url(#22e8868eb9)"><g clip-path="url(#e47adecd66)"><g clip-path="url(#7efed8130a)"><path fill="#ffffff" d="M 0.917969 0.742188 L 46.347656 0.742188 L 46.347656 46.175781 L 0.917969 46.175781 Z M 0.917969 0.742188 " fill-opacity="1" fill-rule="nonzero"/></g></g></g></g></g></g><g clip-path="url(#cda6dc8ee6)"><g clip-path="url(#5bf5e13666)"><g transform="matrix(1, 0, 0, 1, 286, 196)"><g clip-path="url(#0e7ff29021)"><g clip-path="url(#77042fb259)"><g clip-path="url(#b76886fbe8)"><path fill="#ffffff" d="M 0.738281 0.851562 L 46.167969 0.851562 L 46.167969 46.28125 L 0.738281 46.28125 Z M 0.738281 0.851562 " fill-opacity="1" fill-rule="nonzero"/></g></g></g></g></g></g><g clip-path="url(#111998804d)"><g clip-path="url(#3c65ba53af)"><g transform="matrix(1, 0, 0, 1, 56, 196)"><g clip-path="url(#720703ffa6)"><g clip-path="url(#6f5e0b8b34)"><g clip-path="url(#d2bd0b9114)"><path fill="#ffffff" d="M 0.09375 0.851562 L 45.523438 0.851562 L 45.523438 46.28125 L 0.09375 46.28125 Z M 0.09375 0.851562 " fill-opacity="1" fill-rule="nonzero"/></g></g></g></g></g></g><g clip-path="url(#59ba88f84d)"><g transform="matrix(1, 0, 0, 1, 72, 225)"><g clip-path="url(#6a9447d70b)"><g fill="#2b3990" fill-opacity="1"><g transform="translate(0.851686, 22.336517)"><g><path d="M 5.59375 -10.546875 L 5.015625 -10.546875 C 4.421875 -10.546875 3.890625 -10.390625 3.421875 -10.078125 C 2.960938 -9.773438 2.597656 -9.28125 2.328125 -8.59375 C 2.054688 -7.914062 1.921875 -7.015625 1.921875 -5.890625 C 1.921875 -4.753906 2.0625 -3.847656 2.34375 -3.171875 C 2.625 -2.492188 2.992188 -2.003906 3.453125 -1.703125 C 3.921875 -1.398438 4.441406 -1.25 5.015625 -1.25 L 6.671875 -1.25 L 6.671875 0 L 4.71875 0 C 3.882812 0 3.144531 -0.203125 2.5 -0.609375 C 1.863281 -1.023438 1.363281 -1.664062 1 -2.53125 C 0.644531 -3.40625 0.46875 -4.523438 0.46875 -5.890625 C 0.46875 -7.265625 0.644531 -8.382812 1 -9.25 C 1.363281 -10.125 1.863281 -10.765625 2.5 -11.171875 C 3.144531 -11.585938 3.882812 -11.796875 4.71875 -11.796875 L 6.671875 -11.796875 L 6.671875 -10.546875 Z M 5.59375 -10.546875 "/></g></g></g><g fill="#2b3990" fill-opacity="1"><g transform="translate(8.988612, 22.336517)"><g><path d="M 1.375 -12.640625 L 1.953125 -12.640625 L 1.953125 0 L 0.640625 0 L 0.640625 -12.640625 Z M 1.375 -12.640625 "/></g></g></g><g fill="#2b3990" fill-opacity="1"><g transform="translate(12.610633, 22.336517)"><g><path d="M 3.203125 -7.484375 C 2.734375 -7.484375 2.378906 -7.222656 2.140625 -6.703125 C 1.898438 -6.179688 1.78125 -5.351562 1.78125 -4.21875 C 1.78125 -3.070312 1.898438 -2.238281 2.140625 -1.71875 C 2.378906 -1.195312 2.734375 -0.9375 3.203125 -0.9375 C 3.671875 -0.9375 4.03125 -1.195312 4.28125 -1.71875 C 4.53125 -2.238281 4.65625 -3.070312 4.65625 -4.21875 C 4.65625 -5.351562 4.53125 -6.179688 4.28125 -6.703125 C 4.03125 -7.222656 3.671875 -7.484375 3.203125 -7.484375 Z M 3.203125 -8.59375 C 4.046875 -8.59375 4.71875 -8.222656 5.21875 -7.484375 C 5.71875 -6.753906 5.96875 -5.664062 5.96875 -4.21875 C 5.96875 -2.757812 5.71875 -1.660156 5.21875 -0.921875 C 4.71875 -0.191406 4.046875 0.171875 3.203125 0.171875 C 2.359375 0.171875 1.691406 -0.191406 1.203125 -0.921875 C 0.710938 -1.660156 0.46875 -2.757812 0.46875 -4.21875 C 0.46875 -5.664062 0.710938 -6.753906 1.203125 -7.484375 C 1.691406 -8.222656 2.359375 -8.59375 3.203125 -8.59375 Z M 3.203125 -8.59375 "/></g></g></g><g fill="#2b3990" fill-opacity="1"><g transform="translate(20.073691, 22.336517)"><g><path d="M 1.25 -10.953125 L 2.5625 -10.953125 L 2.5625 -8.421875 L 4.046875 -8.421875 L 4.046875 -7.3125 L 2.5625 -7.3125 L 2.5625 -1.953125 C 2.5625 -1.710938 2.640625 -1.507812 2.796875 -1.34375 C 2.960938 -1.1875 3.164062 -1.109375 3.40625 -1.109375 L 4.046875 -1.109375 L 4.046875 0 L 3.0625 0 C 2.5625 0 2.132812 -0.175781 1.78125 -0.53125 C 1.425781 -0.882812 1.25 -1.3125 1.25 -1.8125 L 1.25 -7.3125 L 0.171875 -7.3125 L 0.171875 -8.421875 L 1.25 -8.421875 Z M 1.25 -10.953125 "/></g></g></g><g fill="#2b3990" fill-opacity="1"><g transform="translate(25.31299, 22.336517)"><g><path d="M 3.671875 -8.421875 C 4.066406 -8.421875 4.421875 -8.328125 4.734375 -8.140625 C 5.054688 -7.953125 5.3125 -7.703125 5.5 -7.390625 C 5.695312 -7.078125 5.796875 -6.722656 5.796875 -6.328125 L 5.796875 0 L 4.484375 0 L 4.484375 -6.09375 C 4.484375 -6.4375 4.363281 -6.722656 4.125 -6.953125 C 3.882812 -7.191406 3.597656 -7.3125 3.265625 -7.3125 L 1.953125 -7.3125 L 1.953125 0 L 0.640625 0 L 0.640625 -12.640625 L 1.953125 -12.640625 L 1.953125 -8.421875 Z M 3.671875 -8.421875 "/></g></g></g><g fill="#2b3990" fill-opacity="1"><g transform="translate(32.776047, 22.336517)"><g><path d="M 0.375 -11.796875 C 0.375 -12.046875 0.46875 -12.253906 0.65625 -12.421875 C 0.84375 -12.585938 1.0625 -12.671875 1.3125 -12.671875 C 1.570312 -12.671875 1.785156 -12.585938 1.953125 -12.421875 C 2.128906 -12.253906 2.21875 -12.046875 2.21875 -11.796875 C 2.21875 -11.546875 2.128906 -11.320312 1.953125 -11.125 C 1.785156 -10.9375 1.570312 -10.84375 1.3125 -10.84375 C 1.0625 -10.84375 0.84375 -10.9375 0.65625 -11.125 C 0.46875 -11.320312 0.375 -11.546875 0.375 -11.796875 Z M 1.375 -8.421875 L 1.953125 -8.421875 L 1.953125 0 L 0.640625 0 L 0.640625 -8.421875 Z M 1.375 -8.421875 "/></g></g></g><g fill="#2b3990" fill-opacity="1"><g transform="translate(36.398069, 22.336517)"><g><path d="M 5.046875 0 L 4.484375 0 L 4.484375 -6.09375 C 4.484375 -6.4375 4.367188 -6.722656 4.140625 -6.953125 C 3.921875 -7.191406 3.640625 -7.3125 3.296875 -7.3125 L 1.953125 -7.3125 L 1.953125 0 L 0.640625 0 L 0.640625 -8.421875 L 3.671875 -8.421875 C 4.066406 -8.421875 4.421875 -8.328125 4.734375 -8.140625 C 5.054688 -7.953125 5.3125 -7.703125 5.5 -7.390625 C 5.695312 -7.078125 5.796875 -6.722656 5.796875 -6.328125 L 5.796875 0 Z M 5.046875 0 "/></g></g></g><g fill="#2b3990" fill-opacity="1"><g transform="translate(43.861126, 22.336517)"><g><path d="M 0.46875 -4.21875 C 0.46875 -5.1875 0.609375 -5.984375 0.890625 -6.609375 C 1.179688 -7.234375 1.550781 -7.691406 2 -7.984375 C 2.457031 -8.273438 2.945312 -8.421875 3.46875 -8.421875 L 5.796875 -8.421875 L 5.796875 1.28125 C 5.796875 1.675781 5.695312 2.03125 5.5 2.34375 C 5.3125 2.65625 5.054688 2.90625 4.734375 3.09375 C 4.421875 3.28125 4.066406 3.375 3.671875 3.375 L 1.21875 3.375 L 1.21875 2.25 L 3.296875 2.25 C 3.640625 2.25 3.921875 2.128906 4.140625 1.890625 C 4.367188 1.660156 4.484375 1.378906 4.484375 1.046875 L 4.484375 0 L 3.46875 0 C 2.945312 0 2.457031 -0.144531 2 -0.4375 C 1.550781 -0.726562 1.179688 -1.1875 0.890625 -1.8125 C 0.609375 -2.4375 0.46875 -3.238281 0.46875 -4.21875 Z M 4.484375 -7.3125 L 3.734375 -7.3125 C 3.390625 -7.3125 3.066406 -7.210938 2.765625 -7.015625 C 2.472656 -6.816406 2.234375 -6.488281 2.046875 -6.03125 C 1.867188 -5.582031 1.78125 -4.976562 1.78125 -4.21875 C 1.78125 -3.09375 1.972656 -2.289062 2.359375 -1.8125 C 2.742188 -1.34375 3.203125 -1.109375 3.734375 -1.109375 L 4.484375 -1.109375 Z M 4.484375 -7.3125 "/></g></g></g><g fill="#2b3990" fill-opacity="1"><g transform="translate(51.324184, 22.336517)"><g/></g></g><g fill="#2b3990" fill-opacity="1"><g transform="translate(55.855926, 22.336517)"><g><path d="M 7.171875 -10.546875 L 5.484375 -10.546875 C 5.140625 -10.546875 4.859375 -10.425781 4.640625 -10.1875 C 4.421875 -9.957031 4.3125 -9.671875 4.3125 -9.328125 C 4.3125 -9.015625 4.359375 -8.753906 4.453125 -8.546875 C 4.546875 -8.335938 4.703125 -8.070312 4.921875 -7.75 L 7.21875 -4.234375 C 7.3125 -4.660156 7.382812 -5.140625 7.4375 -5.671875 C 7.488281 -6.203125 7.515625 -6.789062 7.515625 -7.4375 L 8.828125 -7.4375 C 8.828125 -5.519531 8.609375 -3.972656 8.171875 -2.796875 L 10 0 L 8.25 0 L 7.375 -1.328125 C 6.613281 -0.328125 5.535156 0.171875 4.140625 0.171875 C 3.054688 0.171875 2.171875 -0.15625 1.484375 -0.8125 C 0.804688 -1.46875 0.46875 -2.375 0.46875 -3.53125 C 0.46875 -4.226562 0.609375 -4.835938 0.890625 -5.359375 C 1.171875 -5.878906 1.546875 -6.289062 2.015625 -6.59375 C 2.492188 -6.894531 3.019531 -7.054688 3.59375 -7.078125 C 3.320312 -7.503906 3.128906 -7.875 3.015625 -8.1875 C 2.910156 -8.507812 2.859375 -8.914062 2.859375 -9.40625 C 2.859375 -10.132812 3.078125 -10.710938 3.515625 -11.140625 C 3.953125 -11.578125 4.53125 -11.796875 5.25 -11.796875 L 7.171875 -11.796875 Z M 4.40625 -5.828125 L 4.109375 -5.828125 C 3.703125 -5.828125 3.332031 -5.722656 3 -5.515625 C 2.675781 -5.316406 2.414062 -5.035156 2.21875 -4.671875 C 2.019531 -4.316406 1.921875 -3.90625 1.921875 -3.4375 C 1.921875 -2.6875 2.128906 -2.101562 2.546875 -1.6875 C 2.972656 -1.28125 3.503906 -1.078125 4.140625 -1.078125 C 4.648438 -1.078125 5.113281 -1.1875 5.53125 -1.40625 C 5.957031 -1.625 6.316406 -1.992188 6.609375 -2.515625 Z M 4.40625 -5.828125 "/></g></g></g><g fill="#2b3990" fill-opacity="1"><g transform="translate(67.227408, 22.336517)"><g/></g></g><g fill="#2b3990" fill-opacity="1"><g transform="translate(71.75915, 22.336517)"><g><path d="M 4.3125 -10.546875 L 4.3125 0 L 2.859375 0 L 2.859375 -10.546875 L 0.171875 -10.546875 L 0.171875 -11.796875 L 7 -11.796875 L 7 -10.546875 Z M 4.3125 -10.546875 "/></g></g></g><g fill="#2b3990" fill-opacity="1"><g transform="translate(79.963465, 22.336517)"><g><path d="M 3.203125 -7.484375 C 2.734375 -7.484375 2.378906 -7.222656 2.140625 -6.703125 C 1.898438 -6.179688 1.78125 -5.351562 1.78125 -4.21875 C 1.78125 -3.070312 1.898438 -2.238281 2.140625 -1.71875 C 2.378906 -1.195312 2.734375 -0.9375 3.203125 -0.9375 C 3.671875 -0.9375 4.03125 -1.195312 4.28125 -1.71875 C 4.53125 -2.238281 4.65625 -3.070312 4.65625 -4.21875 C 4.65625 -5.351562 4.53125 -6.179688 4.28125 -6.703125 C 4.03125 -7.222656 3.671875 -7.484375 3.203125 -7.484375 Z M 3.203125 -8.59375 C 4.046875 -8.59375 4.71875 -8.222656 5.21875 -7.484375 C 5.71875 -6.753906 5.96875 -5.664062 5.96875 -4.21875 C 5.96875 -2.757812 5.71875 -1.660156 5.21875 -0.921875 C 4.71875 -0.191406 4.046875 0.171875 3.203125 0.171875 C 2.359375 0.171875 1.691406 -0.191406 1.203125 -0.921875 C 0.710938 -1.660156 0.46875 -2.757812 0.46875 -4.21875 C 0.46875 -5.664062 0.710938 -6.753906 1.203125 -7.484375 C 1.691406 -8.222656 2.359375 -8.59375 3.203125 -8.59375 Z M 3.203125 -8.59375 "/></g></g></g><g fill="#2b3990" fill-opacity="1"><g transform="translate(87.426522, 22.336517)"><g><path d="M 5.796875 1.28125 C 5.796875 1.675781 5.695312 2.03125 5.5 2.34375 C 5.3125 2.65625 5.054688 2.90625 4.734375 3.09375 C 4.421875 3.28125 4.066406 3.375 3.671875 3.375 L 1.21875 3.375 L 1.21875 2.25 L 3.296875 2.25 C 3.640625 2.25 3.921875 2.128906 4.140625 1.890625 C 4.367188 1.660156 4.484375 1.378906 4.484375 1.046875 L 4.484375 0 L 2.96875 0 C 2.539062 0 2.148438 -0.0976562 1.796875 -0.296875 C 1.441406 -0.503906 1.160156 -0.78125 0.953125 -1.125 C 0.742188 -1.476562 0.640625 -1.867188 0.640625 -2.296875 L 0.640625 -8.421875 L 1.953125 -8.421875 L 1.953125 -2.390625 C 1.953125 -2.046875 2.082031 -1.742188 2.34375 -1.484375 C 2.613281 -1.234375 2.921875 -1.109375 3.265625 -1.109375 L 4.484375 -1.109375 L 4.484375 -8.421875 L 5.796875 -8.421875 Z M 5.796875 1.28125 "/></g></g></g><g fill="#2b3990" fill-opacity="1"><g transform="translate(94.88958, 22.336517)"><g><path d="M 4.046875 -7.3125 L 2.859375 -7.3125 C 2.523438 -7.3125 2.257812 -7.203125 2.0625 -6.984375 C 1.875 -6.773438 1.78125 -6.503906 1.78125 -6.171875 C 1.78125 -5.765625 1.867188 -5.46875 2.046875 -5.28125 C 2.222656 -5.101562 2.453125 -4.984375 2.734375 -4.921875 L 3.9375 -4.515625 C 4.445312 -4.367188 4.851562 -4.117188 5.15625 -3.765625 C 5.46875 -3.410156 5.625 -2.882812 5.625 -2.1875 C 5.625 -1.539062 5.4375 -1.015625 5.0625 -0.609375 C 4.6875 -0.203125 4.175781 0 3.53125 0 L 0.90625 0 L 0.90625 -1.109375 L 3.234375 -1.109375 C 3.566406 -1.109375 3.828125 -1.210938 4.015625 -1.421875 C 4.210938 -1.640625 4.3125 -1.914062 4.3125 -2.25 C 4.3125 -2.65625 4.226562 -2.953125 4.0625 -3.140625 C 3.894531 -3.335938 3.664062 -3.46875 3.375 -3.53125 L 2.1875 -3.90625 C 1.6875 -4.0625 1.273438 -4.316406 0.953125 -4.671875 C 0.628906 -5.023438 0.46875 -5.546875 0.46875 -6.234375 C 0.46875 -6.890625 0.65625 -7.414062 1.03125 -7.8125 C 1.40625 -8.21875 1.914062 -8.421875 2.5625 -8.421875 L 4.984375 -8.421875 L 4.984375 -7.3125 Z M 4.046875 -7.3125 "/></g></g></g><g fill="#2b3990" fill-opacity="1"><g transform="translate(101.982009, 22.336517)"><g/></g></g><g fill="#2b3990" fill-opacity="1"><g transform="translate(106.513751, 22.336517)"><g><path d="M 4.28125 -11.953125 C 5.445312 -11.953125 6.363281 -11.472656 7.03125 -10.515625 C 7.707031 -9.554688 8.046875 -8.015625 8.046875 -5.890625 C 8.046875 -3.796875 7.707031 -2.257812 7.03125 -1.28125 C 6.363281 -0.3125 5.445312 0.171875 4.28125 0.171875 C 3.125 0.171875 2.195312 -0.3125 1.5 -1.28125 C 0.8125 -2.257812 0.46875 -3.796875 0.46875 -5.890625 C 0.46875 -8.003906 0.8125 -9.539062 1.5 -10.5 C 2.195312 -11.46875 3.125 -11.953125 4.28125 -11.953125 Z M 4.28125 -10.71875 C 3.78125 -10.71875 3.351562 -10.554688 3 -10.234375 C 2.644531 -9.921875 2.375 -9.410156 2.1875 -8.703125 C 2.007812 -7.992188 1.921875 -7.054688 1.921875 -5.890625 C 1.921875 -4.710938 2.007812 -3.769531 2.1875 -3.0625 C 2.375 -2.363281 2.644531 -1.859375 3 -1.546875 C 3.351562 -1.234375 3.78125 -1.078125 4.28125 -1.078125 C 4.769531 -1.078125 5.1875 -1.234375 5.53125 -1.546875 C 5.882812 -1.859375 6.148438 -2.363281 6.328125 -3.0625 C 6.515625 -3.769531 6.609375 -4.710938 6.609375 -5.890625 C 6.609375 -7.640625 6.40625 -8.878906 6 -9.609375 C 5.59375 -10.347656 5.019531 -10.71875 4.28125 -10.71875 Z M 4.28125 -10.71875 "/></g></g></g><g fill="#2b3990" fill-opacity="1"><g transform="translate(116.065791, 22.336517)"><g><path d="M 5.046875 0 L 4.484375 0 L 4.484375 -6.09375 C 4.484375 -6.4375 4.367188 -6.722656 4.140625 -6.953125 C 3.921875 -7.191406 3.640625 -7.3125 3.296875 -7.3125 L 1.953125 -7.3125 L 1.953125 0 L 0.640625 0 L 0.640625 -8.421875 L 3.671875 -8.421875 C 4.066406 -8.421875 4.421875 -8.328125 4.734375 -8.140625 C 5.054688 -7.953125 5.3125 -7.703125 5.5 -7.390625 C 5.695312 -7.078125 5.796875 -6.722656 5.796875 -6.328125 L 5.796875 0 Z M 5.046875 0 "/></g></g></g><g fill="#2b3990" fill-opacity="1"><g transform="translate(123.528848, 22.336517)"><g><path d="M 1.375 -12.640625 L 1.953125 -12.640625 L 1.953125 0 L 0.640625 0 L 0.640625 -12.640625 Z M 1.375 -12.640625 "/></g></g></g><g fill="#2b3990" fill-opacity="1"><g transform="translate(127.15087, 22.336517)"><g><path d="M 0.375 -11.796875 C 0.375 -12.046875 0.46875 -12.253906 0.65625 -12.421875 C 0.84375 -12.585938 1.0625 -12.671875 1.3125 -12.671875 C 1.570312 -12.671875 1.785156 -12.585938 1.953125 -12.421875 C 2.128906 -12.253906 2.21875 -12.046875 2.21875 -11.796875 C 2.21875 -11.546875 2.128906 -11.320312 1.953125 -11.125 C 1.785156 -10.9375 1.570312 -10.84375 1.3125 -10.84375 C 1.0625 -10.84375 0.84375 -10.9375 0.65625 -11.125 C 0.46875 -11.320312 0.375 -11.546875 0.375 -11.796875 Z M 1.375 -8.421875 L 1.953125 -8.421875 L 1.953125 0 L 0.640625 0 L 0.640625 -8.421875 Z M 1.375 -8.421875 "/></g></g></g><g fill="#2b3990" fill-opacity="1"><g transform="translate(130.772891, 22.336517)"><g><path d="M 5.046875 0 L 4.484375 0 L 4.484375 -6.09375 C 4.484375 -6.4375 4.367188 -6.722656 4.140625 -6.953125 C 3.921875 -7.191406 3.640625 -7.3125 3.296875 -7.3125 L 1.953125 -7.3125 L 1.953125 0 L 0.640625 0 L 0.640625 -8.421875 L 3.671875 -8.421875 C 4.066406 -8.421875 4.421875 -8.328125 4.734375 -8.140625 C 5.054688 -7.953125 5.3125 -7.703125 5.5 -7.390625 C 5.695312 -7.078125 5.796875 -6.722656 5.796875 -6.328125 L 5.796875 0 Z M 5.046875 0 "/></g></g></g><g fill="#2b3990" fill-opacity="1"><g transform="translate(138.235949, 22.336517)"><g><path d="M 5.28125 0 L 3.84375 0 C 2.800781 0 1.976562 -0.351562 1.375 -1.0625 C 0.769531 -1.78125 0.46875 -2.863281 0.46875 -4.3125 C 0.46875 -5.726562 0.71875 -6.796875 1.21875 -7.515625 C 1.71875 -8.234375 2.378906 -8.59375 3.203125 -8.59375 C 4.035156 -8.59375 4.703125 -8.234375 5.203125 -7.515625 C 5.710938 -6.796875 5.96875 -5.726562 5.96875 -4.3125 C 5.96875 -4.207031 5.96875 -4.101562 5.96875 -4 C 5.96875 -3.894531 5.953125 -3.796875 5.921875 -3.703125 L 1.796875 -3.703125 C 1.867188 -2.785156 2.085938 -2.125 2.453125 -1.71875 C 2.828125 -1.3125 3.359375 -1.109375 4.046875 -1.109375 L 5.28125 -1.109375 Z M 4.625 -4.8125 C 4.582031 -5.695312 4.441406 -6.347656 4.203125 -6.765625 C 3.960938 -7.191406 3.628906 -7.40625 3.203125 -7.40625 C 2.765625 -7.40625 2.429688 -7.191406 2.203125 -6.765625 C 1.972656 -6.347656 1.835938 -5.695312 1.796875 -4.8125 Z M 4.625 -4.8125 "/></g></g></g><g fill="#2b3990" fill-opacity="1"><g transform="translate(145.699006, 22.336517)"><g/></g></g><g fill="#2b3990" fill-opacity="1"><g transform="translate(150.230749, 22.336517)"><g><path d="M 4.3125 -10.546875 L 4.3125 0 L 2.859375 0 L 2.859375 -10.546875 L 0.171875 -10.546875 L 0.171875 -11.796875 L 7 -11.796875 L 7 -10.546875 Z M 4.3125 -10.546875 "/></g></g></g><g fill="#2b3990" fill-opacity="1"><g transform="translate(158.435063, 22.336517)"><g><path d="M 3.671875 -8.421875 C 4.066406 -8.421875 4.421875 -8.328125 4.734375 -8.140625 C 5.054688 -7.953125 5.3125 -7.703125 5.5 -7.390625 C 5.695312 -7.078125 5.796875 -6.722656 5.796875 -6.328125 L 5.796875 0 L 4.484375 0 L 4.484375 -6.09375 C 4.484375 -6.4375 4.363281 -6.722656 4.125 -6.953125 C 3.882812 -7.191406 3.597656 -7.3125 3.265625 -7.3125 L 1.953125 -7.3125 L 1.953125 0 L 0.640625 0 L 0.640625 -12.640625 L 1.953125 -12.640625 L 1.953125 -8.421875 Z M 3.671875 -8.421875 "/></g></g></g><g fill="#2b3990" fill-opacity="1"><g transform="translate(165.898121, 22.336517)"><g><path d="M 3.84375 -8.421875 L 4.953125 -8.421875 L 4.953125 -7.3125 L 1.953125 -7.3125 L 1.953125 0 L 0.640625 0 L 0.640625 -8.421875 Z M 3.84375 -8.421875 "/></g></g></g><g fill="#2b3990" fill-opacity="1"><g transform="translate(171.979753, 22.336517)"><g><path d="M 0.375 -11.796875 C 0.375 -12.046875 0.46875 -12.253906 0.65625 -12.421875 C 0.84375 -12.585938 1.0625 -12.671875 1.3125 -12.671875 C 1.570312 -12.671875 1.785156 -12.585938 1.953125 -12.421875 C 2.128906 -12.253906 2.21875 -12.046875 2.21875 -11.796875 C 2.21875 -11.546875 2.128906 -11.320312 1.953125 -11.125 C 1.785156 -10.9375 1.570312 -10.84375 1.3125 -10.84375 C 1.0625 -10.84375 0.84375 -10.9375 0.65625 -11.125 C 0.46875 -11.320312 0.375 -11.546875 0.375 -11.796875 Z M 1.375 -8.421875 L 1.953125 -8.421875 L 1.953125 0 L 0.640625 0 L 0.640625 -8.421875 Z M 1.375 -8.421875 "/></g></g></g><g fill="#2b3990" fill-opacity="1"><g transform="translate(175.601774, 22.336517)"><g><path d="M 3.0625 -12.640625 L 4.046875 -12.640625 L 4.046875 -11.515625 L 3.40625 -11.515625 C 3.164062 -11.515625 2.960938 -11.429688 2.796875 -11.265625 C 2.640625 -11.109375 2.5625 -10.910156 2.5625 -10.671875 L 2.5625 -8.421875 L 4.046875 -8.421875 L 4.046875 -7.3125 L 2.5625 -7.3125 L 2.5625 0 L 1.25 0 L 1.25 -7.3125 L 0.171875 -7.3125 L 0.171875 -8.421875 L 1.25 -8.421875 L 1.25 -10.84375 C 1.25 -11.351562 1.425781 -11.78125 1.78125 -12.125 C 2.132812 -12.46875 2.5625 -12.640625 3.0625 -12.640625 Z M 3.0625 -12.640625 "/></g></g></g><g fill="#2b3990" fill-opacity="1"><g transform="translate(180.841073, 22.336517)"><g><path d="M 1.25 -10.953125 L 2.5625 -10.953125 L 2.5625 -8.421875 L 4.046875 -8.421875 L 4.046875 -7.3125 L 2.5625 -7.3125 L 2.5625 -1.953125 C 2.5625 -1.710938 2.640625 -1.507812 2.796875 -1.34375 C 2.960938 -1.1875 3.164062 -1.109375 3.40625 -1.109375 L 4.046875 -1.109375 L 4.046875 0 L 3.0625 0 C 2.5625 0 2.132812 -0.175781 1.78125 -0.53125 C 1.425781 -0.882812 1.25 -1.3125 1.25 -1.8125 L 1.25 -7.3125 L 0.171875 -7.3125 L 0.171875 -8.421875 L 1.25 -8.421875 Z M 1.25 -10.953125 "/></g></g></g><g fill="#2b3990" fill-opacity="1"><g transform="translate(186.080372, 22.336517)"><g/></g></g><g fill="#2b3990" fill-opacity="1"><g transform="translate(190.612115, 22.336517)"><g><path d="M 5.390625 -10.546875 L 3.640625 -10.546875 C 3.117188 -10.546875 2.703125 -10.382812 2.390625 -10.0625 C 2.078125 -9.75 1.921875 -9.328125 1.921875 -8.796875 C 1.921875 -7.742188 2.425781 -7.066406 3.4375 -6.765625 L 5.21875 -6.03125 C 5.925781 -5.757812 6.453125 -5.367188 6.796875 -4.859375 C 7.140625 -4.359375 7.3125 -3.703125 7.3125 -2.890625 C 7.3125 -1.984375 7.050781 -1.273438 6.53125 -0.765625 C 6.007812 -0.253906 5.328125 0 4.484375 0 L 0.90625 0 L 0.90625 -1.25 L 4.140625 -1.25 C 4.671875 -1.25 5.085938 -1.40625 5.390625 -1.71875 C 5.703125 -2.03125 5.859375 -2.457031 5.859375 -3 C 5.859375 -4.050781 5.363281 -4.722656 4.375 -5.015625 L 2.59375 -5.796875 C 1.882812 -6.066406 1.351562 -6.453125 1 -6.953125 C 0.644531 -7.460938 0.46875 -8.117188 0.46875 -8.921875 C 0.46875 -9.835938 0.734375 -10.546875 1.265625 -11.046875 C 1.804688 -11.546875 2.492188 -11.796875 3.328125 -11.796875 L 6.46875 -11.796875 L 6.46875 -10.546875 Z M 5.390625 -10.546875 "/></g></g></g><g fill="#2b3990" fill-opacity="1"><g transform="translate(199.355522, 22.336517)"><g><path d="M 3.671875 -8.421875 C 4.066406 -8.421875 4.421875 -8.328125 4.734375 -8.140625 C 5.054688 -7.953125 5.3125 -7.703125 5.5 -7.390625 C 5.695312 -7.078125 5.796875 -6.722656 5.796875 -6.328125 L 5.796875 0 L 4.484375 0 L 4.484375 -6.09375 C 4.484375 -6.4375 4.363281 -6.722656 4.125 -6.953125 C 3.882812 -7.191406 3.597656 -7.3125 3.265625 -7.3125 L 1.953125 -7.3125 L 1.953125 0 L 0.640625 0 L 0.640625 -12.640625 L 1.953125 -12.640625 L 1.953125 -8.421875 Z M 3.671875 -8.421875 "/></g></g></g><g fill="#2b3990" fill-opacity="1"><g transform="translate(206.818579, 22.336517)"><g><path d="M 3.203125 -7.484375 C 2.734375 -7.484375 2.378906 -7.222656 2.140625 -6.703125 C 1.898438 -6.179688 1.78125 -5.351562 1.78125 -4.21875 C 1.78125 -3.070312 1.898438 -2.238281 2.140625 -1.71875 C 2.378906 -1.195312 2.734375 -0.9375 3.203125 -0.9375 C 3.671875 -0.9375 4.03125 -1.195312 4.28125 -1.71875 C 4.53125 -2.238281 4.65625 -3.070312 4.65625 -4.21875 C 4.65625 -5.351562 4.53125 -6.179688 4.28125 -6.703125 C 4.03125 -7.222656 3.671875 -7.484375 3.203125 -7.484375 Z M 3.203125 -8.59375 C 4.046875 -8.59375 4.71875 -8.222656 5.21875 -7.484375 C 5.71875 -6.753906 5.96875 -5.664062 5.96875 -4.21875 C 5.96875 -2.757812 5.71875 -1.660156 5.21875 -0.921875 C 4.71875 -0.191406 4.046875 0.171875 3.203125 0.171875 C 2.359375 0.171875 1.691406 -0.191406 1.203125 -0.921875 C 0.710938 -1.660156 0.46875 -2.757812 0.46875 -4.21875 C 0.46875 -5.664062 0.710938 -6.753906 1.203125 -7.484375 C 1.691406 -8.222656 2.359375 -8.59375 3.203125 -8.59375 Z M 3.203125 -8.59375 "/></g></g></g><g fill="#2b3990" fill-opacity="1"><g transform="translate(214.281637, 22.336517)"><g><path d="M 5.96875 -4.21875 C 5.96875 -3.238281 5.828125 -2.4375 5.546875 -1.8125 C 5.265625 -1.1875 4.894531 -0.726562 4.4375 -0.4375 C 3.976562 -0.144531 3.488281 0 2.96875 0 L 1.953125 0 L 1.953125 3.375 L 0.640625 3.375 L 0.640625 -8.421875 L 2.96875 -8.421875 C 3.488281 -8.421875 3.976562 -8.273438 4.4375 -7.984375 C 4.894531 -7.691406 5.265625 -7.234375 5.546875 -6.609375 C 5.828125 -5.984375 5.96875 -5.1875 5.96875 -4.21875 Z M 1.953125 -1.109375 L 2.6875 -1.109375 C 3.226562 -1.109375 3.691406 -1.34375 4.078125 -1.8125 C 4.460938 -2.289062 4.65625 -3.09375 4.65625 -4.21875 C 4.65625 -4.976562 4.5625 -5.582031 4.375 -6.03125 C 4.195312 -6.488281 3.957031 -6.816406 3.65625 -7.015625 C 3.363281 -7.210938 3.039062 -7.3125 2.6875 -7.3125 L 1.953125 -7.3125 Z M 1.953125 -1.109375 "/></g></g></g></g></g></g><g transform="matrix(1, 0, 0, 1, 46, 177)"><g clip-path="url(#cc5e61dc2c)"><g fill="#f078b1" fill-opacity="1"><g transform="translate(1.484777, 47.253073)"><g><path d="M 26.03125 -15.28125 C 26 -12.53125 26.132812 -9.828125 26.4375 -7.171875 C 26.75 -4.523438 27.222656 -1.929688 27.859375 0.609375 C 26.992188 0.835938 26.03125 1.023438 24.96875 1.171875 C 23.914062 1.316406 22.738281 1.414062 21.4375 1.46875 C 21.09375 0.75 20.765625 0.0078125 20.453125 -0.75 C 20.148438 -1.519531 19.867188 -2.296875 19.609375 -3.078125 C 18.515625 -1.742188 17.269531 -0.742188 15.875 -0.078125 C 14.488281 0.578125 12.941406 0.90625 11.234375 0.90625 C 8.253906 0.90625 5.890625 -0.191406 4.140625 -2.390625 C 2.390625 -4.585938 1.515625 -7.566406 1.515625 -11.328125 C 1.515625 -16.960938 2.875 -21.71875 5.59375 -25.59375 C 8.3125 -29.476562 11.738281 -31.421875 15.875 -31.421875 C 18.738281 -31.421875 21.03125 -30.585938 22.75 -28.921875 C 24.476562 -27.253906 25.472656 -24.929688 25.734375 -21.953125 C 24.460938 -21.546875 23.109375 -21.238281 21.671875 -21.03125 C 20.242188 -20.832031 18.675781 -20.734375 16.96875 -20.734375 C 16.613281 -22.765625 16.234375 -24.179688 15.828125 -24.984375 C 15.429688 -25.796875 14.914062 -26.203125 14.28125 -26.203125 C 13.175781 -26.203125 12.289062 -25.085938 11.625 -22.859375 C 10.957031 -20.640625 10.625 -17.691406 10.625 -14.015625 C 10.625 -11.179688 10.910156 -9.113281 11.484375 -7.8125 C 12.066406 -6.507812 13 -5.859375 14.28125 -5.859375 C 15.082031 -5.859375 15.816406 -6.125 16.484375 -6.65625 C 17.148438 -7.195312 17.6875 -7.957031 18.09375 -8.9375 C 17.945312 -9.832031 17.816406 -10.726562 17.703125 -11.625 C 17.585938 -12.519531 17.5 -13.414062 17.4375 -14.3125 C 18.59375 -14.632812 19.859375 -14.875 21.234375 -15.03125 C 22.609375 -15.195312 24.207031 -15.28125 26.03125 -15.28125 Z M 26.03125 -15.28125 "/></g></g></g><g fill="#f078b1" fill-opacity="1"><g transform="translate(29.343289, 47.253073)"><g><path d="M 21 -14.84375 C 21.664062 -13.914062 22.15625 -12.9375 22.46875 -11.90625 C 22.789062 -10.882812 22.953125 -9.78125 22.953125 -8.59375 C 22.953125 -5.613281 21.878906 -3.144531 19.734375 -1.1875 C 17.597656 0.757812 14.96875 1.734375 11.84375 1.734375 C 8.40625 1.734375 5.535156 0.671875 3.234375 -1.453125 C 0.929688 -3.578125 -0.21875 -6.101562 -0.21875 -9.03125 C 0.707031 -9.488281 1.828125 -9.882812 3.140625 -10.21875 C 4.460938 -10.550781 5.554688 -10.71875 6.421875 -10.71875 C 6.421875 -8.519531 6.832031 -6.75 7.65625 -5.40625 C 8.476562 -4.0625 9.597656 -3.390625 11.015625 -3.390625 C 12.035156 -3.390625 12.816406 -3.671875 13.359375 -4.234375 C 13.910156 -4.796875 14.1875 -5.566406 14.1875 -6.546875 C 14.1875 -7.390625 13.90625 -8.207031 13.34375 -9 C 12.78125 -9.800781 11.53125 -10.9375 9.59375 -12.40625 C 8.144531 -13.507812 7.070312 -14.390625 6.375 -15.046875 C 5.6875 -15.710938 5.09375 -16.367188 4.59375 -17.015625 C 3.90625 -17.992188 3.382812 -19.007812 3.03125 -20.0625 C 2.6875 -21.125 2.515625 -22.257812 2.515625 -23.46875 C 2.515625 -26.363281 3.546875 -28.722656 5.609375 -30.546875 C 7.679688 -32.367188 10.394531 -33.28125 13.75 -33.28125 C 16.726562 -33.28125 19.117188 -32.5625 20.921875 -31.125 C 22.734375 -29.695312 23.929688 -27.582031 24.515625 -24.78125 C 23.671875 -24.226562 22.710938 -23.800781 21.640625 -23.5 C 20.578125 -23.195312 19.175781 -22.984375 17.4375 -22.859375 C 17.175781 -24.660156 16.742188 -25.953125 16.140625 -26.734375 C 15.535156 -27.515625 14.695312 -27.90625 13.625 -27.90625 C 12.957031 -27.90625 12.425781 -27.691406 12.03125 -27.265625 C 11.644531 -26.847656 11.453125 -26.289062 11.453125 -25.59375 C 11.453125 -24.644531 11.738281 -23.734375 12.3125 -22.859375 C 12.894531 -21.992188 14.171875 -20.828125 16.140625 -19.359375 C 17.585938 -18.285156 18.644531 -17.429688 19.3125 -16.796875 C 19.976562 -16.160156 20.539062 -15.507812 21 -14.84375 Z M 21 -14.84375 "/></g></g></g><g fill="#f078b1" fill-opacity="1"><g transform="translate(53.643552, 47.253073)"><g><path d="M 29.15625 2.390625 C 28.144531 3.054688 26.9375 3.613281 25.53125 4.0625 C 24.132812 4.507812 22.46875 4.847656 20.53125 5.078125 C 20.351562 3.335938 20.113281 1.523438 19.8125 -0.359375 C 19.507812 -2.253906 19.125 -4.1875 18.65625 -6.15625 C 16.800781 -6.132812 15.132812 -6.078125 13.65625 -5.984375 C 12.1875 -5.898438 10.800781 -5.769531 9.5 -5.59375 C 9.039062 -4.289062 8.5625 -3.046875 8.0625 -1.859375 C 7.570312 -0.679688 7.082031 0.398438 6.59375 1.390625 C 5.175781 1.160156 3.835938 0.703125 2.578125 0.015625 C 1.316406 -0.660156 0.328125 -1.460938 -0.390625 -2.390625 C 1.835938 -6.523438 3.773438 -10.695312 5.421875 -14.90625 C 7.066406 -19.113281 8.789062 -24.414062 10.59375 -30.8125 C 12.007812 -30.8125 13.285156 -30.742188 14.421875 -30.609375 C 15.566406 -30.484375 16.832031 -30.242188 18.21875 -29.890625 C 20.738281 -25.898438 22.921875 -21.15625 24.765625 -15.65625 C 26.617188 -10.164062 28.082031 -4.148438 29.15625 2.390625 Z M 14.1875 -20.875 C 13.8125 -19.457031 13.390625 -17.953125 12.921875 -16.359375 C 12.460938 -14.765625 11.972656 -13.144531 11.453125 -11.5 C 12.441406 -11.644531 13.40625 -11.757812 14.34375 -11.84375 C 15.28125 -11.925781 16.226562 -11.984375 17.1875 -12.015625 C 16.6875 -13.640625 16.191406 -15.1875 15.703125 -16.65625 C 15.210938 -18.132812 14.707031 -19.539062 14.1875 -20.875 Z M 14.1875 -20.875 "/></g></g></g><g fill="#f078b1" fill-opacity="1"><g transform="translate(82.847244, 47.253073)"><g/></g></g><g fill="#f078b1" fill-opacity="1"><g transform="translate(92.393779, 47.253073)"><g><path d="M 21 -14.84375 C 21.664062 -13.914062 22.15625 -12.9375 22.46875 -11.90625 C 22.789062 -10.882812 22.953125 -9.78125 22.953125 -8.59375 C 22.953125 -5.613281 21.878906 -3.144531 19.734375 -1.1875 C 17.597656 0.757812 14.96875 1.734375 11.84375 1.734375 C 8.40625 1.734375 5.535156 0.671875 3.234375 -1.453125 C 0.929688 -3.578125 -0.21875 -6.101562 -0.21875 -9.03125 C 0.707031 -9.488281 1.828125 -9.882812 3.140625 -10.21875 C 4.460938 -10.550781 5.554688 -10.71875 6.421875 -10.71875 C 6.421875 -8.519531 6.832031 -6.75 7.65625 -5.40625 C 8.476562 -4.0625 9.597656 -3.390625 11.015625 -3.390625 C 12.035156 -3.390625 12.816406 -3.671875 13.359375 -4.234375 C 13.910156 -4.796875 14.1875 -5.566406 14.1875 -6.546875 C 14.1875 -7.390625 13.90625 -8.207031 13.34375 -9 C 12.78125 -9.800781 11.53125 -10.9375 9.59375 -12.40625 C 8.144531 -13.507812 7.070312 -14.390625 6.375 -15.046875 C 5.6875 -15.710938 5.09375 -16.367188 4.59375 -17.015625 C 3.90625 -17.992188 3.382812 -19.007812 3.03125 -20.0625 C 2.6875 -21.125 2.515625 -22.257812 2.515625 -23.46875 C 2.515625 -26.363281 3.546875 -28.722656 5.609375 -30.546875 C 7.679688 -32.367188 10.394531 -33.28125 13.75 -33.28125 C 16.726562 -33.28125 19.117188 -32.5625 20.921875 -31.125 C 22.734375 -29.695312 23.929688 -27.582031 24.515625 -24.78125 C 23.671875 -24.226562 22.710938 -23.800781 21.640625 -23.5 C 20.578125 -23.195312 19.175781 -22.984375 17.4375 -22.859375 C 17.175781 -24.660156 16.742188 -25.953125 16.140625 -26.734375 C 15.535156 -27.515625 14.695312 -27.90625 13.625 -27.90625 C 12.957031 -27.90625 12.425781 -27.691406 12.03125 -27.265625 C 11.644531 -26.847656 11.453125 -26.289062 11.453125 -25.59375 C 11.453125 -24.644531 11.738281 -23.734375 12.3125 -22.859375 C 12.894531 -21.992188 14.171875 -20.828125 16.140625 -19.359375 C 17.585938 -18.285156 18.644531 -17.429688 19.3125 -16.796875 C 19.976562 -16.160156 20.539062 -15.507812 21 -14.84375 Z M 21 -14.84375 "/></g></g></g><g fill="#f078b1" fill-opacity="1"><g transform="translate(116.694042, 47.253073)"><g><path d="M 29.15625 2.390625 C 28.144531 3.054688 26.9375 3.613281 25.53125 4.0625 C 24.132812 4.507812 22.46875 4.847656 20.53125 5.078125 C 20.351562 3.335938 20.113281 1.523438 19.8125 -0.359375 C 19.507812 -2.253906 19.125 -4.1875 18.65625 -6.15625 C 16.800781 -6.132812 15.132812 -6.078125 13.65625 -5.984375 C 12.1875 -5.898438 10.800781 -5.769531 9.5 -5.59375 C 9.039062 -4.289062 8.5625 -3.046875 8.0625 -1.859375 C 7.570312 -0.679688 7.082031 0.398438 6.59375 1.390625 C 5.175781 1.160156 3.835938 0.703125 2.578125 0.015625 C 1.316406 -0.660156 0.328125 -1.460938 -0.390625 -2.390625 C 1.835938 -6.523438 3.773438 -10.695312 5.421875 -14.90625 C 7.066406 -19.113281 8.789062 -24.414062 10.59375 -30.8125 C 12.007812 -30.8125 13.285156 -30.742188 14.421875 -30.609375 C 15.566406 -30.484375 16.832031 -30.242188 18.21875 -29.890625 C 20.738281 -25.898438 22.921875 -21.15625 24.765625 -15.65625 C 26.617188 -10.164062 28.082031 -4.148438 29.15625 2.390625 Z M 14.1875 -20.875 C 13.8125 -19.457031 13.390625 -17.953125 12.921875 -16.359375 C 12.460938 -14.765625 11.972656 -13.144531 11.453125 -11.5 C 12.441406 -11.644531 13.40625 -11.757812 14.34375 -11.84375 C 15.28125 -11.925781 16.226562 -11.984375 17.1875 -12.015625 C 16.6875 -13.640625 16.191406 -15.1875 15.703125 -16.65625 C 15.210938 -18.132812 14.707031 -19.539062 14.1875 -20.875 Z M 14.1875 -20.875 "/></g></g></g><g fill="#f078b1" fill-opacity="1"><g transform="translate(145.897734, 47.253073)"><g><path d="M 27.90625 -1.90625 C 27.007812 -0.976562 25.910156 -0.15625 24.609375 0.5625 C 23.304688 1.289062 21.800781 1.898438 20.09375 2.390625 C 18.238281 -1.984375 16.84375 -5.085938 15.90625 -6.921875 C 14.96875 -8.753906 13.976562 -10.4375 12.9375 -11.96875 C 12.675781 -11.914062 12.476562 -11.867188 12.34375 -11.828125 C 12.21875 -11.785156 12.09375 -11.734375 11.96875 -11.671875 C 11.914062 -9.585938 11.832031 -7.554688 11.71875 -5.578125 C 11.601562 -3.597656 11.457031 -1.640625 11.28125 0.296875 C 9.976562 0.296875 8.660156 0.242188 7.328125 0.140625 C 6.003906 0.046875 4.832031 -0.0859375 3.8125 -0.265625 C 3.84375 -1.617188 3.863281 -2.628906 3.875 -3.296875 C 3.894531 -3.960938 3.90625 -4.582031 3.90625 -5.15625 C 3.90625 -8.832031 3.78125 -12.664062 3.53125 -16.65625 C 3.289062 -20.65625 2.910156 -24.992188 2.390625 -29.671875 C 3.742188 -30.835938 5.394531 -31.75 7.34375 -32.40625 C 9.300781 -33.070312 11.234375 -33.40625 13.140625 -33.40625 C 16.929688 -33.40625 19.851562 -32.59375 21.90625 -30.96875 C 23.96875 -29.351562 25 -27.085938 25 -24.171875 C 25 -22.398438 24.535156 -20.75 23.609375 -19.21875 C 22.679688 -17.6875 21.304688 -16.3125 19.484375 -15.09375 C 21.015625 -13.332031 22.46875 -11.378906 23.84375 -9.234375 C 25.21875 -7.097656 26.570312 -4.65625 27.90625 -1.90625 Z M 12.0625 -17.09375 L 12.0625 -16.921875 C 13.425781 -17.441406 14.4375 -18.238281 15.09375 -19.3125 C 15.757812 -20.382812 16.09375 -21.742188 16.09375 -23.390625 C 16.09375 -25.003906 15.738281 -26.257812 15.03125 -27.15625 C 14.320312 -28.050781 13.300781 -28.5 11.96875 -28.5 L 11.796875 -28.5 C 11.890625 -25.664062 11.957031 -23.414062 12 -21.75 C 12.039062 -20.09375 12.0625 -18.539062 12.0625 -17.09375 Z M 12.0625 -17.09375 "/></g></g></g><g fill="#f078b1" fill-opacity="1"><g transform="translate(173.582661, 47.253073)"><g><path d="M 11.84375 -22.828125 C 11.84375 -18.890625 11.753906 -14.769531 11.578125 -10.46875 C 11.410156 -6.175781 11.179688 -2.515625 10.890625 0.515625 C 10.078125 0.753906 8.96875 0.957031 7.5625 1.125 C 6.164062 1.300781 4.875 1.390625 3.6875 1.390625 C 3.6875 -4.660156 3.554688 -10.15625 3.296875 -15.09375 C 3.035156 -20.039062 2.644531 -24.484375 2.125 -28.421875 C 2.820312 -28.878906 3.640625 -29.238281 4.578125 -29.5 C 5.515625 -29.757812 6.503906 -29.890625 7.546875 -29.890625 C 8.328125 -29.890625 9.03125 -29.851562 9.65625 -29.78125 C 10.28125 -29.707031 10.96875 -29.570312 11.71875 -29.375 C 11.75 -28.476562 11.773438 -27.472656 11.796875 -26.359375 C 11.828125 -25.242188 11.84375 -24.066406 11.84375 -22.828125 Z M 11.84375 -22.828125 "/></g></g></g><g fill="#f078b1" fill-opacity="1"><g transform="translate(187.989238, 47.253073)"><g><path d="M 14.9375 -8.8125 C 12.9375 -8.289062 10.398438 -8.050781 7.328125 -8.09375 C 4.265625 -8.132812 2.226562 -8.457031 1.21875 -9.0625 C 1.132812 -10.394531 1.15625 -11.5625 1.28125 -12.5625 C 1.414062 -13.5625 1.65625 -14.582031 2 -15.625 C 2.695312 -15.445312 3.640625 -15.304688 4.828125 -15.203125 C 6.015625 -15.109375 7.097656 -15.0625 8.078125 -15.0625 C 10.210938 -15.0625 11.804688 -15.082031 12.859375 -15.125 C 13.921875 -15.164062 14.882812 -15.226562 15.75 -15.3125 C 15.75 -13.84375 15.6875 -12.578125 15.5625 -11.515625 C 15.4375 -10.460938 15.226562 -9.5625 14.9375 -8.8125 Z M 14.9375 -8.8125 "/></g></g></g><g fill="#f078b1" fill-opacity="1"><g transform="translate(204.739062, 47.253073)"><g><path d="M 21 -14.84375 C 21.664062 -13.914062 22.15625 -12.9375 22.46875 -11.90625 C 22.789062 -10.882812 22.953125 -9.78125 22.953125 -8.59375 C 22.953125 -5.613281 21.878906 -3.144531 19.734375 -1.1875 C 17.597656 0.757812 14.96875 1.734375 11.84375 1.734375 C 8.40625 1.734375 5.535156 0.671875 3.234375 -1.453125 C 0.929688 -3.578125 -0.21875 -6.101562 -0.21875 -9.03125 C 0.707031 -9.488281 1.828125 -9.882812 3.140625 -10.21875 C 4.460938 -10.550781 5.554688 -10.71875 6.421875 -10.71875 C 6.421875 -8.519531 6.832031 -6.75 7.65625 -5.40625 C 8.476562 -4.0625 9.597656 -3.390625 11.015625 -3.390625 C 12.035156 -3.390625 12.816406 -3.671875 13.359375 -4.234375 C 13.910156 -4.796875 14.1875 -5.566406 14.1875 -6.546875 C 14.1875 -7.390625 13.90625 -8.207031 13.34375 -9 C 12.78125 -9.800781 11.53125 -10.9375 9.59375 -12.40625 C 8.144531 -13.507812 7.070312 -14.390625 6.375 -15.046875 C 5.6875 -15.710938 5.09375 -16.367188 4.59375 -17.015625 C 3.90625 -17.992188 3.382812 -19.007812 3.03125 -20.0625 C 2.6875 -21.125 2.515625 -22.257812 2.515625 -23.46875 C 2.515625 -26.363281 3.546875 -28.722656 5.609375 -30.546875 C 7.679688 -32.367188 10.394531 -33.28125 13.75 -33.28125 C 16.726562 -33.28125 19.117188 -32.5625 20.921875 -31.125 C 22.734375 -29.695312 23.929688 -27.582031 24.515625 -24.78125 C 23.671875 -24.226562 22.710938 -23.800781 21.640625 -23.5 C 20.578125 -23.195312 19.175781 -22.984375 17.4375 -22.859375 C 17.175781 -24.660156 16.742188 -25.953125 16.140625 -26.734375 C 15.535156 -27.515625 14.695312 -27.90625 13.625 -27.90625 C 12.957031 -27.90625 12.425781 -27.691406 12.03125 -27.265625 C 11.644531 -26.847656 11.453125 -26.289062 11.453125 -25.59375 C 11.453125 -24.644531 11.738281 -23.734375 12.3125 -22.859375 C 12.894531 -21.992188 14.171875 -20.828125 16.140625 -19.359375 C 17.585938 -18.285156 18.644531 -17.429688 19.3125 -16.796875 C 19.976562 -16.160156 20.539062 -15.507812 21 -14.84375 Z M 21 -14.84375 "/></g></g></g><g fill="#f078b1" fill-opacity="1"><g transform="translate(229.039325, 47.253073)"><g><path d="M 29.15625 2.390625 C 28.144531 3.054688 26.9375 3.613281 25.53125 4.0625 C 24.132812 4.507812 22.46875 4.847656 20.53125 5.078125 C 20.351562 3.335938 20.113281 1.523438 19.8125 -0.359375 C 19.507812 -2.253906 19.125 -4.1875 18.65625 -6.15625 C 16.800781 -6.132812 15.132812 -6.078125 13.65625 -5.984375 C 12.1875 -5.898438 10.800781 -5.769531 9.5 -5.59375 C 9.039062 -4.289062 8.5625 -3.046875 8.0625 -1.859375 C 7.570312 -0.679688 7.082031 0.398438 6.59375 1.390625 C 5.175781 1.160156 3.835938 0.703125 2.578125 0.015625 C 1.316406 -0.660156 0.328125 -1.460938 -0.390625 -2.390625 C 1.835938 -6.523438 3.773438 -10.695312 5.421875 -14.90625 C 7.066406 -19.113281 8.789062 -24.414062 10.59375 -30.8125 C 12.007812 -30.8125 13.285156 -30.742188 14.421875 -30.609375 C 15.566406 -30.484375 16.832031 -30.242188 18.21875 -29.890625 C 20.738281 -25.898438 22.921875 -21.15625 24.765625 -15.65625 C 26.617188 -10.164062 28.082031 -4.148438 29.15625 2.390625 Z M 14.1875 -20.875 C 13.8125 -19.457031 13.390625 -17.953125 12.921875 -16.359375 C 12.460938 -14.765625 11.972656 -13.144531 11.453125 -11.5 C 12.441406 -11.644531 13.40625 -11.757812 14.34375 -11.84375 C 15.28125 -11.925781 16.226562 -11.984375 17.1875 -12.015625 C 16.6875 -13.640625 16.191406 -15.1875 15.703125 -16.65625 C 15.210938 -18.132812 14.707031 -19.539062 14.1875 -20.875 Z M 14.1875 -20.875 "/></g></g></g><g fill="#f078b1" fill-opacity="1"><g transform="translate(258.243017, 47.253073)"><g><path d="M 27.90625 -1.90625 C 27.007812 -0.976562 25.910156 -0.15625 24.609375 0.5625 C 23.304688 1.289062 21.800781 1.898438 20.09375 2.390625 C 18.238281 -1.984375 16.84375 -5.085938 15.90625 -6.921875 C 14.96875 -8.753906 13.976562 -10.4375 12.9375 -11.96875 C 12.675781 -11.914062 12.476562 -11.867188 12.34375 -11.828125 C 12.21875 -11.785156 12.09375 -11.734375 11.96875 -11.671875 C 11.914062 -9.585938 11.832031 -7.554688 11.71875 -5.578125 C 11.601562 -3.597656 11.457031 -1.640625 11.28125 0.296875 C 9.976562 0.296875 8.660156 0.242188 7.328125 0.140625 C 6.003906 0.046875 4.832031 -0.0859375 3.8125 -0.265625 C 3.84375 -1.617188 3.863281 -2.628906 3.875 -3.296875 C 3.894531 -3.960938 3.90625 -4.582031 3.90625 -5.15625 C 3.90625 -8.832031 3.78125 -12.664062 3.53125 -16.65625 C 3.289062 -20.65625 2.910156 -24.992188 2.390625 -29.671875 C 3.742188 -30.835938 5.394531 -31.75 7.34375 -32.40625 C 9.300781 -33.070312 11.234375 -33.40625 13.140625 -33.40625 C 16.929688 -33.40625 19.851562 -32.59375 21.90625 -30.96875 C 23.96875 -29.351562 25 -27.085938 25 -24.171875 C 25 -22.398438 24.535156 -20.75 23.609375 -19.21875 C 22.679688 -17.6875 21.304688 -16.3125 19.484375 -15.09375 C 21.015625 -13.332031 22.46875 -11.378906 23.84375 -9.234375 C 25.21875 -7.097656 26.570312 -4.65625 27.90625 -1.90625 Z M 12.0625 -17.09375 L 12.0625 -16.921875 C 13.425781 -17.441406 14.4375 -18.238281 15.09375 -19.3125 C 15.757812 -20.382812 16.09375 -21.742188 16.09375 -23.390625 C 16.09375 -25.003906 15.738281 -26.257812 15.03125 -27.15625 C 14.320312 -28.050781 13.300781 -28.5 11.96875 -28.5 L 11.796875 -28.5 C 11.890625 -25.664062 11.957031 -23.414062 12 -21.75 C 12.039062 -20.09375 12.0625 -18.539062 12.0625 -17.09375 Z M 12.0625 -17.09375 "/></g></g></g><g fill="#f078b1" fill-opacity="1"><g transform="translate(285.927943, 47.253073)"><g><path d="M 11.84375 -22.828125 C 11.84375 -18.890625 11.753906 -14.769531 11.578125 -10.46875 C 11.410156 -6.175781 11.179688 -2.515625 10.890625 0.515625 C 10.078125 0.753906 8.96875 0.957031 7.5625 1.125 C 6.164062 1.300781 4.875 1.390625 3.6875 1.390625 C 3.6875 -4.660156 3.554688 -10.15625 3.296875 -15.09375 C 3.035156 -20.039062 2.644531 -24.484375 2.125 -28.421875 C 2.820312 -28.878906 3.640625 -29.238281 4.578125 -29.5 C 5.515625 -29.757812 6.503906 -29.890625 7.546875 -29.890625 C 8.328125 -29.890625 9.03125 -29.851562 9.65625 -29.78125 C 10.28125 -29.707031 10.96875 -29.570312 11.71875 -29.375 C 11.75 -28.476562 11.773438 -27.472656 11.796875 -26.359375 C 11.828125 -25.242188 11.84375 -24.066406 11.84375 -22.828125 Z M 11.84375 -22.828125 "/></g></g></g></g></g></g></g></svg>